# This file uses centimeters as units for non-parametric coordinates.

mtllib Floor_Bend_LP.mtl
g default
v 0.000044 0.000000 0.000000
v 3.000000 0.000000 0.000000
v 3.000000 0.000000 -3.000000
v 2.953912 0.000000 -3.000000
v 2.678251 0.000000 -2.989298
v 2.366717 0.000000 -2.951365
v 2.067918 0.000000 -2.887493
v 1.783973 0.000000 -2.797495
v 1.628584 0.000000 -2.730109
v 1.516645 0.000000 -2.681564
v 1.267396 0.000000 -2.540232
v 1.133341 0.000000 -2.443502
v 1.037463 0.000000 -2.374318
v 0.915023 -0.000000 -2.263601
v 0.827923 0.000000 -2.184840
v 0.717704 0.000000 -2.060734
v 0.639761 0.000000 -1.972970
v 0.542392 0.000000 -1.836190
v 0.473923 0.000000 -1.740006
v 0.390021 0.000000 -1.591450
v 0.331281 0.000000 -1.487443
v 0.282617 0.000000 -1.376133
v 0.212966 0.000000 -1.216823
v 0.174623 0.000000 -1.099143
v 0.119732 -0.000000 -0.930677
v 0.052559 -0.000000 -0.629862
v 0.012302 -0.000000 -0.318448
vt 0.000015 0.000000
vt 1.000000 0.000000
vt 1.000000 1.000000
vt 0.984637 1.000000
vt 0.892750 0.996433
vt 0.788906 0.983788
vt 0.689306 0.962498
vt 0.594658 0.932498
vt 0.542861 0.910036
vt 0.505548 0.893855
vt 0.422465 0.846744
vt 0.377780 0.814501
vt 0.345821 0.791439
vt 0.305008 0.754534
vt 0.275974 0.728280
vt 0.239235 0.686911
vt 0.213254 0.657657
vt 0.180797 0.612063
vt 0.157974 0.580002
vt 0.130007 0.530483
vt 0.110427 0.495814
vt 0.094206 0.458711
vt 0.070989 0.405608
vt 0.058208 0.366381
vt 0.039911 0.310226
vt 0.017520 0.209954
vt 0.004101 0.106149
vn -0.000000 1.000000 -0.000000
vn -0.000000 1.000000 -0.000000
vn -0.000000 1.000000 -0.000000
vn -0.000000 1.000000 -0.000000
vn -0.000000 1.000000 -0.000000
vn -0.000000 1.000000 -0.000000
vn -0.000000 1.000000 -0.000000
vn -0.000000 1.000000 -0.000000
vn -0.000000 1.000000 -0.000000
vn -0.000000 1.000000 -0.000000
vn -0.000000 1.000000 -0.000000
vn -0.000000 1.000000 -0.000000
vn -0.000000 1.000000 -0.000000
vn -0.000000 1.000000 -0.000000
vn -0.000000 1.000000 -0.000000
vn -0.000000 1.000000 -0.000000
vn -0.000000 1.000000 -0.000000
vn -0.000000 1.000000 -0.000000
vn -0.000000 1.000000 -0.000000
vn -0.000000 1.000000 -0.000000
vn -0.000000 1.000000 -0.000000
vn -0.000000 1.000000 -0.000000
vn -0.000000 1.000000 -0.000000
vn -0.000000 1.000000 -0.000000
vn -0.000000 1.000000 -0.000000
vn -0.000000 1.000000 -0.000000
vn -0.000000 1.000000 -0.000000
s off
g Floor_Bend_LP
usemtl initialShadingGroup
f 1/1/1 2/2/2 3/3/3 4/4/4 5/5/5 6/6/6 7/7/7 8/8/8 9/9/9 10/10/10 11/11/11 12/12/12 13/13/13 14/14/14 15/15/15 16/16/16 17/17/17 18/18/18 19/19/19 20/20/20 21/21/21 22/22/22 23/23/23 24/24/24 25/25/25 26/26/26 27/27/27
