# This file uses centimeters as units for non-parametric coordinates.

mtllib Inside_Wall_LP.mtl
g default
v 0.000000 0.000000 -0.000331
v 0.000000 0.600000 -0.000331
v -1.000000 1.000000 -3.000000
v -0.500000 1.000000 -3.000000
v 0.000000 0.600000 -3.000000
v -1.000000 0.000000 -3.000000
v -0.500000 0.000000 -3.000000
v 0.000000 0.000000 -3.000000
v -1.000000 1.000000 -0.995892
v -0.500000 1.000000 -0.498277
v -1.000000 0.000000 -0.995892
v -0.500000 0.000000 -0.498277
v -3.000000 0.000000 -1.000000
v -3.000000 0.000000 -0.500000
v -3.000000 0.000000 0.000000
v -3.000000 1.000000 -1.000000
v -3.000000 1.000000 -0.500000
v -3.000000 0.600000 0.000000
v 0.000000 0.600265 -0.000331
v 0.000000 0.000000 -0.000331
v -1.004128 1.000000 -1.000000
v -0.501732 1.000000 -0.500000
v -1.004128 0.000000 -1.000000
v -0.501732 0.000000 -0.500000
vt 0.532146 0.115809
vt 0.732867 0.737597
vt 0.805317 0.738330
vt 0.975529 0.115649
vt 0.975670 0.505916
vt 0.975643 0.432011
vt 0.975498 0.026963
vt 0.661003 0.678905
vt 0.661882 0.591965
vt 0.975590 0.284200
vt 0.806782 0.593430
vt 0.734332 0.592697
vt 0.975563 0.210295
vt 0.975696 0.579822
vt 0.532114 0.027122
vt 0.679361 0.284306
vt 0.605782 0.210427
vt 0.679414 0.432117
vt 0.605888 0.506049
vt 0.532361 0.579981
vt 0.341996 0.593508
vt 0.412885 0.593493
vt 0.412917 0.735269
vt 0.342028 0.735285
vt 0.483773 0.593477
vt 0.483792 0.678542
vt 0.047456 0.284359
vt 0.047430 0.210454
vt 0.416701 0.210321
vt 0.342468 0.284253
vt 0.047396 0.115809
vt 0.490828 0.115712
vt 0.047364 0.027122
vt 0.490797 0.026963
vt 0.342521 0.432064
vt 0.416807 0.505943
vt 0.047536 0.506075
vt 0.047509 0.432170
vt 0.490995 0.579773
vt 0.047563 0.579981
vn 0.000000 0.000000 -1.000000
vn 0.000000 0.000000 -1.000000
vn 0.000000 0.000000 -1.000000
vn 0.000000 0.000000 -1.000000
vn 0.000000 0.000000 -1.000000
vn 0.000000 0.000000 -1.000000
vn 0.000000 -1.000000 0.000000
vn 0.000000 -1.000000 0.000000
vn 0.000000 -1.000000 0.000000
vn 0.000000 -1.000000 0.000000
vn 0.000000 -1.000000 0.000000
vn 0.000000 -1.000000 0.000000
vn -1.000000 0.000000 0.000000
vn -1.000000 0.000000 0.000000
vn -1.000000 0.000000 0.000000
vn -1.000000 0.000000 0.000000
vn 0.000000 1.000000 0.000000
vn 0.527298 0.849681 0.000000
vn 0.402580 0.915385 0.000000
vn 0.000000 1.000000 0.000000
vn 0.624695 0.780869 0.000000
vn 0.624695 0.780869 0.000000
vn 1.000000 0.000000 0.000000
vn 1.000000 0.000000 0.000000
vn 1.000000 0.000000 0.000000
vn 1.000000 0.000000 0.000000
vn -1.000000 0.000000 0.000000
vn -1.000000 0.000000 0.000000
vn -1.000000 0.000000 0.000000
vn -1.000000 0.000000 0.000000
vn -1.000000 0.000000 0.000000
vn -1.000000 0.000000 0.000000
vn 0.000000 1.000000 0.000000
vn 0.000000 0.915269 0.402843
vn 0.000000 0.849173 0.528115
vn 0.000000 1.000000 0.000000
vn 0.000000 0.780869 0.624695
vn 0.000000 0.780869 0.624695
vn 0.000110 0.000000 1.000000
vn 0.000110 0.000000 1.000000
vn 0.000110 0.000000 1.000000
vn 0.000110 0.000000 1.000000
vn 0.000000 -1.000000 0.000000
vn 0.000000 -1.000000 0.000000
vn 0.000000 -1.000000 0.000000
vn 0.000000 -1.000000 0.000000
vn 0.000000 -1.000000 0.000000
vn 0.000000 -1.000000 0.000000
vn 0.000000 0.000000 -1.000000
vn 0.000000 0.000000 -1.000000
vn 0.000000 0.000000 -1.000000
vn 0.000000 0.000000 -1.000000
s 1
g Inside_Corner_LP
usemtl initialShadingGroup
f 3/3/1 4/2/2 7/12/3 6/11/4
f 4/2/2 5/8/5 8/9/6 7/12/3
s 2
f 6/6/7 7/5/8 12/19/9 11/18/10
f 7/5/8 8/14/11 1/20/12 12/19/9
s off
f 6/6/13 11/18/14 9/16/15 3/10/16
s 3
f 9/16/17 10/17/18 4/13/19 3/10/20
f 10/17/18 2/1/21 5/4/22 4/13/19
s off
f 2/1/23 1/15/24 8/7/25 5/4/26
s 4
f 13/21/27 14/22/28 17/23/29 16/24/30
f 14/22/28 15/25/31 18/26/32 17/23/29
s 5
f 16/27/33 17/28/34 22/29/35 21/30/36
f 17/28/34 18/31/37 19/32/38 22/29/35
s off
f 15/33/39 20/34/40 19/32/41 18/31/42
s 6
f 23/35/43 24/36/44 14/37/45 13/38/46
f 24/36/44 20/39/47 15/40/48 14/37/45
s off
f 21/30/49 23/35/50 13/38/51 16/27/52
