# This file uses centimeters as units for non-parametric coordinates.

mtllib OBST_Wall.mtl
g default
v -0.300000 0.000000 0.000000
v 0.000000 0.000000 0.000000
v -0.300000 0.724516 0.000000
v 0.000000 0.724516 0.000000
v -0.300000 0.724516 -3.000000
v 0.000000 0.724516 -3.000000
v -0.300000 0.000000 -3.000000
v 0.000000 0.000000 -3.000000
v -0.300000 1.000000 -2.400000
v -0.300000 0.000000 -2.400000
v 0.000000 0.000000 -2.400000
v 0.000000 1.000000 -2.400000
v -0.300000 1.000000 -0.480000
v -0.300000 0.000000 -0.480000
v 0.000000 0.000000 -0.480000
v 0.000000 1.000000 -0.480000
v -0.300000 0.700000 0.000000
v -0.300000 0.700000 -0.480000
v -0.300000 0.700000 -2.400000
v -0.300000 0.700000 -3.000000
v 0.000000 0.700000 -3.000000
v 0.000000 0.700000 -2.400000
v 0.000000 0.700000 -0.480000
v 0.000000 0.700000 0.000000
vt 0.375000 0.000000
vt 0.625000 0.000000
vt 0.375000 0.250000
vt 0.625000 0.250000
vt 0.375000 0.500000
vt 0.625000 0.500000
vt 0.375000 0.750000
vt 0.625000 0.750000
vt 0.375000 1.000000
vt 0.625000 1.000000
vt 0.875000 0.000000
vt 0.875000 0.250000
vt 0.125000 0.000000
vt 0.125000 0.250000
vt 0.175000 0.250000
vt 0.375000 0.450000
vt 0.175000 0.000000
vt 0.375000 0.800000
vt 0.625000 0.800000
vt 0.825000 0.000000
vt 0.625000 0.450000
vt 0.825000 0.250000
vt 0.335000 0.250000
vt 0.375000 0.290000
vt 0.335000 0.000000
vt 0.375000 0.960000
vt 0.625000 0.960000
vt 0.665000 0.000000
vt 0.625000 0.290000
vt 0.665000 0.250000
vt 0.375000 0.175000
vt 0.335000 0.175000
vt 0.175000 0.175000
vt 0.125000 0.175000
vt 0.375000 0.575000
vt 0.625000 0.575000
vt 0.875000 0.175000
vt 0.825000 0.175000
vt 0.665000 0.175000
vt 0.625000 0.175000
vn 0.000000 0.000000 1.000000
vn 0.000000 0.000000 1.000000
vn 0.000000 0.000000 1.000000
vn 0.000000 0.000000 1.000000
vn 0.000000 0.867309 0.497770
vn 0.000000 0.867309 0.497770
vn 0.000000 0.993477 0.114036
vn 0.000000 0.993477 0.114036
vn 0.000000 0.000000 -1.000000
vn 0.000000 0.000000 -1.000000
vn 0.000000 0.000000 -1.000000
vn 0.000000 0.000000 -1.000000
vn 0.000000 -1.000000 0.000000
vn 0.000000 -1.000000 0.000000
vn 0.000000 -1.000000 0.000000
vn 0.000000 -1.000000 0.000000
vn 1.000000 0.000000 0.000000
vn 1.000000 0.000000 0.000000
vn 1.000000 0.000000 0.000000
vn 1.000000 0.000000 0.000000
vn -1.000000 0.000000 0.000000
vn -1.000000 0.000000 0.000000
vn -1.000000 0.000000 0.000000
vn -1.000000 0.000000 0.000000
vn -1.000000 0.000000 0.000000
vn -1.000000 0.000000 0.000000
vn -1.000000 0.000000 0.000000
vn -1.000000 0.000000 0.000000
vn 0.000000 -1.000000 0.000000
vn 0.000000 -1.000000 0.000000
vn 0.000000 -1.000000 0.000000
vn 0.000000 -1.000000 0.000000
vn 1.000000 0.000000 0.000000
vn 1.000000 0.000000 0.000000
vn 1.000000 0.000000 0.000000
vn 1.000000 0.000000 0.000000
vn 0.000000 0.994078 -0.108672
vn 0.000000 0.994078 -0.108672
vn 0.000000 0.908787 -0.417260
vn 0.000000 0.908787 -0.417260
vn -1.000000 0.000000 0.000000
vn -1.000000 0.000000 0.000000
vn -1.000000 0.000000 0.000000
vn -1.000000 0.000000 0.000000
vn 0.000000 0.000000 -1.000000
vn 0.000000 0.000000 -1.000000
vn 1.000000 0.000000 0.000000
vn 1.000000 0.000000 0.000000
vn 1.000000 0.000000 0.000000
vn 1.000000 0.000000 0.000000
vn 0.000000 0.000000 1.000000
vn 0.000000 0.000000 1.000000
s 1
g pCube1
usemtl initialShadingGroup
f 1/1/1 2/2/2 24/40/3 17/31/4
s 2
f 3/3/5 4/4/6 16/29/7 13/24/8
s 3
f 20/35/9 21/36/10 8/8/11 7/7/12
s 4
f 14/26/13 15/27/14 2/10/15 1/9/16
s 5
f 2/2/17 15/28/18 23/39/19 24/40/20
s 6
f 17/31/21 18/32/22 14/25/23 1/1/24
f 7/13/25 10/17/26 19/33/27 20/34/28
s 4
f 7/7/29 8/8/30 11/19/31 10/18/32
s 5
f 21/37/33 22/38/34 11/20/35 8/11/36
s 2
f 9/16/37 12/21/38 6/6/39 5/5/40
s 6
f 18/32/22 19/33/27 10/17/26 14/25/23
s 4
f 10/18/32 11/19/31 15/27/14 14/26/13
s 5
f 22/38/34 23/39/19 15/28/18 11/20/35
s 2
f 13/24/8 16/29/7 12/21/38 9/16/37
s 6
f 13/23/41 18/32/22 17/31/21 3/3/42
f 9/15/43 19/33/27 18/32/22 13/23/41
f 20/34/28 19/33/27 9/15/43 5/14/44
s 3
f 5/5/45 6/6/46 21/36/10 20/35/9
s 5
f 12/22/47 22/38/34 21/37/33 6/12/48
f 16/30/49 23/39/19 22/38/34 12/22/47
f 24/40/20 23/39/19 16/30/49 4/4/50
s 1
f 17/31/4 24/40/3 4/4/51 3/3/52
