# This file uses centimeters as units for non-parametric coordinates.

mtllib Outside_Bend_LP.mtl
g default
v 1.557816 0.000000 1.481674
v 1.241467 0.000000 1.090955
v 0.929985 0.000000 0.695375
v 1.557816 1.000000 1.481674
v 1.241467 1.000000 1.090955
v 0.933664 0.600000 0.691700
v 3.000000 1.000000 1.000000
v 3.000000 1.000000 0.500000
v 3.000000 0.600000 0.000000
v 3.000000 0.000000 1.000000
v 3.000000 0.000000 0.500000
v 3.000000 0.000000 0.000000
v 1.000000 0.000000 3.000000
v 0.500000 0.000000 3.000000
v -0.000000 0.000000 3.000000
v 1.000000 1.000000 3.000000
v 0.500000 1.000000 3.000000
v -0.000000 0.600000 3.000000
v 1.557816 1.000000 1.481674
v 1.241467 1.000000 1.090955
v 0.933664 0.600000 0.691700
v 1.557816 0.000000 1.481674
v 1.241467 0.000000 1.090955
v 0.929985 0.000000 0.695375
v 2.011593 1.000000 0.624184
v 2.175827 1.000000 1.113203
v 2.175827 0.000000 1.113203
v 2.011593 0.000000 0.624184
v 1.849934 0.000000 0.132594
v 1.849934 0.600000 0.132594
v 0.711810 1.000000 1.924207
v 1.156340 1.000000 2.132940
v 1.156340 0.000000 2.132940
v 0.711810 0.000000 1.924207
v 0.253011 0.000000 1.729726
v 0.253011 0.600000 1.729726
v 0.554512 1.000000 2.449965
v 1.043348 1.000000 2.549065
v 1.043348 0.000000 2.549065
v 0.554512 0.000000 2.449965
v 0.064119 0.000000 2.352419
v 0.064119 0.600000 2.352419
v 1.329356 1.000000 1.773223
v 0.944809 1.000000 1.464284
v 0.554555 0.600000 1.161044
v 0.553318 0.000000 1.162280
v 0.944809 0.000000 1.464284
v 1.329356 0.000000 1.773223
v 1.597849 1.000000 0.811111
v 1.839963 1.000000 1.262479
v 1.839963 0.000000 1.262479
v 1.597849 0.000000 0.811111
v 1.364688 0.000000 0.350801
v 1.371292 0.600000 0.344203
v 2.564399 1.000000 1.027695
v 2.474707 1.000000 0.529458
v 2.386365 0.600000 0.029873
v 2.386365 0.000000 0.029873
v 2.474707 0.000000 0.529458
v 2.564399 0.000000 1.027695
v 2.235213 1.000000 0.567822
v 2.363729 1.000000 1.062901
v 2.363729 0.000000 1.062901
v 2.235213 0.000000 0.567822
v 2.109073 0.000000 0.070369
v 2.109073 0.600000 0.070369
v 2.776950 1.000000 1.006883
v 2.729977 1.000000 0.507258
v 2.683389 0.600000 0.007248
v 2.683389 0.000000 0.007248
v 2.729977 0.000000 0.507258
v 2.776950 0.000000 1.006883
v 2.001177 1.000000 1.179443
v 1.798368 1.000000 0.705628
v 1.607045 0.600000 0.220340
v 1.599780 0.000000 0.227597
v 1.798368 0.000000 0.705628
v 2.001177 0.000000 1.179443
v 1.412254 1.000000 0.939332
v 1.692192 1.000000 1.363055
v 1.692192 0.000000 1.363055
v 1.412254 0.000000 0.939332
v 1.143269 0.000000 0.504666
v 1.148264 0.600000 0.499676
v 1.436829 1.000000 1.618489
v 1.085543 1.000000 1.266110
v 0.735474 0.600000 0.912516
v 0.733063 0.000000 0.914925
v 1.085543 0.000000 1.266110
v 1.436829 0.000000 1.618489
v 0.819910 1.000000 1.684275
v 1.235696 1.000000 1.945121
v 1.235696 0.000000 1.945121
v 0.819910 0.000000 1.684275
v 0.392287 0.000000 1.435253
v 0.392287 0.600000 1.435253
v 1.091955 1.000000 2.334965
v 0.621740 1.000000 2.181576
v 0.143270 0.600000 2.036433
v 0.143270 0.000000 2.036433
v 0.621740 0.000000 2.181576
v 1.091955 0.000000 2.334965
v 0.513914 1.000000 2.723651
v 1.011506 1.000000 2.772660
v 1.011506 0.000000 2.772660
v 0.513914 0.000000 2.723651
v 0.016322 0.000000 2.674642
v 0.016322 0.600000 2.674642
vt 0.080057 0.284359
vt 0.080031 0.210454
vt 0.523463 0.210295
vt 0.523490 0.284200
vt 0.079997 0.115809
vt 0.523429 0.115649
vt 0.805317 0.738330
vt 0.732867 0.737597
vt 0.734332 0.592697
vt 0.806782 0.593430
vt 0.661003 0.678905
vt 0.661882 0.591965
vt 0.523543 0.432011
vt 0.523570 0.505916
vt 0.080137 0.506075
vt 0.080110 0.432170
vt 0.523596 0.579822
vt 0.080164 0.579981
vt 0.079965 0.027122
vt 0.523398 0.026963
vt 0.270267 0.593508
vt 0.341155 0.593493
vt 0.341187 0.735269
vt 0.270298 0.735285
vt 0.412043 0.593477
vt 0.412062 0.678542
vt 0.532157 0.284359
vt 0.532131 0.210454
vt 0.975563 0.210295
vt 0.975590 0.284200
vt 0.532097 0.115809
vt 0.975529 0.115649
vt 0.975643 0.432011
vt 0.975670 0.505916
vt 0.532237 0.506075
vt 0.532210 0.432170
vt 0.975696 0.579822
vt 0.532264 0.579981
vt 0.532065 0.027122
vt 0.975498 0.026963
vt 0.301747 0.210375
vt 0.301773 0.284280
vt 0.301826 0.432091
vt 0.301853 0.505996
vt 0.301880 0.579902
vt 0.301681 0.027043
vt 0.301713 0.115729
vt 0.753847 0.210375
vt 0.753873 0.284280
vt 0.753927 0.432091
vt 0.753953 0.505996
vt 0.753980 0.579902
vt 0.753781 0.027043
vt 0.753813 0.115729
vt 0.642989 0.210414
vt 0.643015 0.284319
vt 0.643068 0.432130
vt 0.643095 0.506035
vt 0.643122 0.579941
vt 0.642923 0.027082
vt 0.642955 0.115769
vt 0.864732 0.284240
vt 0.864705 0.210335
vt 0.864671 0.115689
vt 0.864838 0.579862
vt 0.864640 0.027003
vt 0.864812 0.505956
vt 0.864785 0.432051
vt 0.190889 0.210414
vt 0.190915 0.284319
vt 0.190968 0.432130
vt 0.190995 0.506035
vt 0.191022 0.579941
vt 0.190823 0.027082
vt 0.190855 0.115769
vt 0.412632 0.284240
vt 0.412605 0.210335
vt 0.412571 0.115689
vt 0.412738 0.579862
vt 0.412540 0.027003
vt 0.412712 0.505956
vt 0.412685 0.432051
vt 0.357176 0.210355
vt 0.357203 0.284260
vt 0.357256 0.432071
vt 0.357283 0.505976
vt 0.357309 0.579882
vt 0.357111 0.027023
vt 0.357142 0.115709
vt 0.468061 0.284220
vt 0.468034 0.210315
vt 0.468000 0.115669
vt 0.468167 0.579842
vt 0.467969 0.026983
vt 0.468141 0.505936
vt 0.468114 0.432031
vt 0.246344 0.284299
vt 0.246318 0.210394
vt 0.246284 0.115749
vt 0.246451 0.579921
vt 0.246252 0.027062
vt 0.246424 0.506015
vt 0.246397 0.432110
vt 0.135460 0.210434
vt 0.135486 0.284339
vt 0.135539 0.432150
vt 0.135566 0.506055
vt 0.135593 0.579961
vt 0.135394 0.027102
vt 0.135426 0.115789
vt 0.920161 0.284220
vt 0.920134 0.210315
vt 0.920100 0.115669
vt 0.920267 0.579842
vt 0.920069 0.026983
vt 0.920241 0.505936
vt 0.920214 0.432031
vt 0.809276 0.210355
vt 0.809303 0.284260
vt 0.809356 0.432071
vt 0.809383 0.505976
vt 0.809409 0.579882
vt 0.809211 0.027023
vt 0.809242 0.115709
vt 0.698444 0.284299
vt 0.698418 0.210394
vt 0.698384 0.115749
vt 0.698551 0.579921
vt 0.698352 0.027062
vt 0.698524 0.506015
vt 0.698497 0.432110
vt 0.587560 0.210434
vt 0.587586 0.284339
vt 0.587639 0.432150
vt 0.587666 0.506055
vt 0.587693 0.579961
vt 0.587494 0.027102
vt 0.587526 0.115789
vn 0.000000 1.000000 0.000000
vn 0.000000 1.000000 0.000000
vn 0.000000 1.000000 0.000000
vn -0.371391 0.928477 0.000000
vn -0.371391 0.928477 0.000000
vn -0.385134 0.785887 -0.483791
vn -0.381127 0.786223 -0.486411
vn -0.624695 0.780869 0.000000
vn 0.000000 0.000000 -1.000000
vn 0.000000 0.000000 -1.000000
vn 0.000000 0.000000 -1.000000
vn 0.000000 0.000000 -1.000000
vn 0.000000 0.000000 -1.000000
vn 0.000000 0.000000 -1.000000
vn 0.000000 0.000000 -1.000000
vn 0.000000 0.000000 -1.000000
vn 0.000000 -1.000000 0.000000
vn 0.000000 -1.000000 0.000000
vn 0.000000 -1.000000 0.000000
vn 0.000000 -1.000000 0.000000
vn 0.000000 -1.000000 0.000000
vn 0.000000 -1.000000 0.000000
vn 0.000000 -1.000000 0.000000
vn 0.000000 -1.000000 0.000000
vn -1.000000 0.000000 0.000000
vn -1.000000 0.000000 0.000000
vn -0.621163 -0.001466 -0.783680
vn -0.621871 -0.001452 -0.783118
vn 0.613499 0.000000 0.789695
vn 1.000000 0.000000 0.000000
vn 1.000000 0.000000 0.000000
vn 0.613499 0.000000 0.789695
vn 0.000000 0.000000 1.000000
vn 0.000000 0.000000 1.000000
vn 0.000000 0.000000 1.000000
vn 0.000000 0.000000 1.000000
vn 0.000000 0.000000 1.000000
vn 0.000000 0.000000 1.000000
vn 0.000000 0.000000 1.000000
vn 0.000000 0.000000 1.000000
vn 0.000000 1.000000 0.000000
vn 0.000000 1.000000 0.000000
vn 0.000000 1.000000 0.000000
vn -0.371391 0.928477 0.000000
vn -0.371391 0.928477 0.000000
vn -0.621662 0.780860 -0.061588
vn -0.621664 0.780860 -0.061572
vn -0.624695 0.780869 0.000000
vn 0.000000 -1.000000 0.000000
vn 0.000000 -1.000000 0.000000
vn 0.000000 -1.000000 0.000000
vn 0.000000 -1.000000 0.000000
vn 0.000000 -1.000000 0.000000
vn 0.000000 -1.000000 0.000000
vn 0.000000 -1.000000 0.000000
vn 0.000000 -1.000000 0.000000
vn -1.000000 0.000000 0.000000
vn -1.000000 0.000000 0.000000
vn -0.995134 0.000000 -0.098532
vn -0.995134 0.000000 -0.098532
vn 0.995411 0.000000 0.095687
vn 1.000000 0.000000 0.000000
vn 1.000000 0.000000 0.000000
vn 0.995411 0.000000 0.095687
vn 0.000000 1.000000 0.000000
vn 0.000000 1.000000 0.000000
vn -0.371391 0.928477 0.000000
vn 0.000000 1.000000 0.000000
vn 1.000000 0.000000 0.000000
vn 1.000000 0.000000 0.000000
vn 0.063452 0.000000 0.997985
vn 0.063452 0.000000 0.997985
vn 0.000000 -1.000000 0.000000
vn 0.000000 -1.000000 0.000000
vn 0.000000 -1.000000 0.000000
vn 0.000000 -1.000000 0.000000
vn 0.000000 -1.000000 0.000000
vn 0.000000 -1.000000 0.000000
vn 0.000000 -1.000000 0.000000
vn 0.000000 -1.000000 0.000000
vn -0.048625 0.000000 -0.998817
vn -1.000000 0.000000 0.000000
vn -1.000000 0.000000 0.000000
vn -0.048625 0.000000 -0.998817
vn -0.032104 0.782172 -0.622235
vn -0.371391 0.928477 0.000000
vn -0.624695 0.780869 0.000000
vn -0.032795 0.782211 -0.622150
vn 0.000000 1.000000 0.000000
vn 0.000000 1.000000 0.000000
vn -0.371391 0.928477 0.000000
vn 0.000000 1.000000 0.000000
vn 1.000000 0.000000 0.000000
vn 1.000000 0.000000 0.000000
vn 0.787124 0.000000 0.616795
vn 0.787124 0.000000 0.616795
vn 0.000000 -1.000000 0.000000
vn 0.000000 -1.000000 0.000000
vn 0.000000 -1.000000 0.000000
vn 0.000000 -1.000000 0.000000
vn 0.000000 -1.000000 0.000000
vn 0.000000 -1.000000 0.000000
vn 0.000000 -1.000000 0.000000
vn 0.000000 -1.000000 0.000000
vn -0.777998 0.000535 -0.628266
vn -1.000000 0.000000 0.000000
vn -1.000000 0.000000 0.000000
vn -0.778229 0.000536 -0.627980
vn -0.491657 0.777639 -0.391856
vn -0.371391 0.928477 0.000000
vn -0.624695 0.780869 0.000000
vn -0.489182 0.777775 -0.394675
vn 0.000000 1.000000 0.000000
vn 0.000000 1.000000 0.000000
vn 0.000000 1.000000 0.000000
vn 0.000000 1.000000 0.000000
vn 0.938254 0.000000 0.345949
vn 0.965056 0.000000 0.262045
vn 0.965056 0.000000 0.262045
vn 0.938254 0.000000 0.345949
vn 0.000000 -1.000000 0.000000
vn 0.000000 -1.000000 0.000000
vn 0.000000 -1.000000 0.000000
vn 0.000000 -1.000000 0.000000
vn 0.000000 -1.000000 0.000000
vn 0.000000 -1.000000 0.000000
vn 0.000000 -1.000000 0.000000
vn 0.000000 -1.000000 0.000000
vn -0.956940 0.000000 -0.290285
vn -0.923879 0.000000 -0.382684
vn -0.923879 0.000000 -0.382684
vn -0.956940 0.000000 -0.290285
vn -0.598503 0.780554 -0.180360
vn -0.580492 0.779318 -0.235995
vn -0.580349 0.779304 -0.236390
vn -0.598489 0.780553 -0.180409
vn 0.000000 1.000000 0.000000
vn 0.000000 1.000000 0.000000
vn -0.558468 0.777441 -0.289308
vn -0.557875 0.777397 -0.290570
vn -0.883669 0.000180 -0.468113
vn -0.883669 0.000180 -0.468113
vn 0.000000 -1.000000 0.000000
vn 0.000000 -1.000000 0.000000
vn 0.000000 -1.000000 0.000000
vn 0.000000 -1.000000 0.000000
vn 0.901178 0.000000 0.433449
vn 0.901178 0.000000 0.433449
vn 0.000000 1.000000 0.000000
vn 0.000000 1.000000 0.000000
vn 0.000000 1.000000 0.000000
vn 0.000000 1.000000 0.000000
vn 0.306028 0.000000 0.952023
vn 0.406146 0.000000 0.913808
vn 0.406146 0.000000 0.913808
vn 0.306028 0.000000 0.952023
vn 0.000000 -1.000000 0.000000
vn 0.000000 -1.000000 0.000000
vn 0.000000 -1.000000 0.000000
vn 0.000000 -1.000000 0.000000
vn 0.000000 -1.000000 0.000000
vn 0.000000 -1.000000 0.000000
vn 0.000000 -1.000000 0.000000
vn 0.000000 -1.000000 0.000000
vn -0.406665 -0.004216 -0.913568
vn -0.290645 -0.001775 -0.956829
vn -0.290645 -0.001775 -0.956829
vn -0.407856 -0.004229 -0.913037
vn -0.249474 0.792652 -0.556295
vn -0.178971 0.791348 -0.584584
vn -0.179614 0.791374 -0.584351
vn -0.247863 0.792662 -0.557002
vn 0.000000 1.000000 0.000000
vn 0.000000 1.000000 0.000000
vn -0.118681 0.788118 -0.603975
vn -0.120067 0.788203 -0.603589
vn -0.188072 0.000000 -0.982155
vn -0.188072 0.000000 -0.982155
vn 0.000000 -1.000000 0.000000
vn 0.000000 -1.000000 0.000000
vn 0.000000 -1.000000 0.000000
vn 0.000000 -1.000000 0.000000
vn 0.214914 0.000000 0.976633
vn 0.214914 0.000000 0.976633
vn 0.000000 1.000000 0.000000
vn 0.000000 1.000000 0.000000
vn 0.134335 0.000000 0.990936
vn 0.134335 0.000000 0.990936
vn 0.000000 -1.000000 0.000000
vn 0.000000 -1.000000 0.000000
vn 0.000000 -1.000000 0.000000
vn 0.000000 -1.000000 0.000000
vn -0.109250 0.000000 -0.994014
vn -0.109250 0.000000 -0.994014
vn -0.070675 0.784766 -0.615749
vn -0.071928 0.784860 -0.615484
vn 0.000000 1.000000 0.000000
vn 0.000000 1.000000 0.000000
vn -0.319356 0.790480 -0.522641
vn -0.316198 0.790654 -0.524294
vn -0.518934 -0.003636 -0.854806
vn -0.519960 -0.003613 -0.854183
vn 0.000000 -1.000000 0.000000
vn 0.000000 -1.000000 0.000000
vn 0.000000 -1.000000 0.000000
vn 0.000000 -1.000000 0.000000
vn 0.510853 0.000000 0.859668
vn 0.510853 0.000000 0.859668
vn 0.000000 1.000000 0.000000
vn 0.000000 1.000000 0.000000
vn -0.529803 0.776478 -0.341160
vn -0.528380 0.776479 -0.343358
vn -0.836202 0.000516 -0.548421
vn -0.836297 0.000516 -0.548276
vn 0.000000 -1.000000 0.000000
vn 0.000000 -1.000000 0.000000
vn 0.000000 -1.000000 0.000000
vn 0.000000 -1.000000 0.000000
vn 0.851509 0.000000 0.524340
vn 0.851509 0.000000 0.524340
vn 0.000000 1.000000 0.000000
vn 0.000000 1.000000 0.000000
vn -0.612692 0.780869 -0.121872
vn -0.612692 0.780869 -0.121872
vn -0.980785 0.000000 -0.195091
vn -0.980785 0.000000 -0.195091
vn 0.000000 -1.000000 0.000000
vn 0.000000 -1.000000 0.000000
vn 0.000000 -1.000000 0.000000
vn 0.000000 -1.000000 0.000000
vn 0.983525 0.000000 0.180772
vn 0.983525 0.000000 0.180772
s 1
g Inside_Bend_LP
usemtl Wall_LP:initialShadingGroup
f 4/1/1 80/105/2 79/104/3 5/2/4
s 2
f 5/2/5 79/104/6 84/110/7 6/5/8
s off
f 7/7/9 10/10/10 11/9/11 8/8/12
f 8/8/13 11/9/14 12/12/15 9/11/16
s 3
f 81/106/17 1/16/18 2/15/19 82/107/20
s 4
f 82/107/21 2/15/22 3/18/23 83/108/24
s 5
f 3/19/25 6/5/26 84/110/27 83/109/28
s 6
f 80/105/29 4/1/30 1/16/31 81/106/32
s off
f 13/21/33 16/24/34 17/23/35 14/22/36
f 14/22/37 17/23/38 18/26/39 15/25/40
s 7
f 16/27/41 104/133/42 103/132/43 17/28/44
s 8
f 17/28/45 103/132/46 108/138/47 18/31/48
s 9
f 105/134/49 13/36/50 14/35/51 106/135/52
s 10
f 106/135/53 14/35/54 15/38/55 107/136/56
s 11
f 15/39/57 18/31/58 108/138/59 107/137/60
s 12
f 104/133/61 16/27/62 13/36/63 105/134/64
s 1
f 67/90/65 7/4/66 8/3/67 68/91/68
s 6
f 10/13/69 7/4/70 67/90/71 72/96/72
s 3
f 10/13/73 72/96/74 71/95/75 11/14/76
s 4
f 11/14/77 71/95/78 70/93/79 12/17/80
s 5
f 69/92/81 9/6/82 12/20/83 70/94/84
s 2
f 68/91/85 8/3/86 9/6/87 69/92/88
s 7
f 85/111/89 19/30/90 20/29/91 86/112/92
s 12
f 22/33/93 19/30/94 85/111/95 90/117/96
s 9
f 22/33/97 90/117/98 89/116/99 23/34/100
s 10
f 23/34/101 89/116/102 88/114/103 24/37/104
s 11
f 87/113/105 21/32/106 24/40/107 88/115/108
s 8
f 86/112/109 20/29/110 21/32/111 87/113/112
s 7
f 97/125/113 32/49/114 31/48/115 98/126/116
s 12
f 32/49/117 97/125/118 102/131/119 33/50/120
s 9
f 33/50/121 102/131/122 101/130/123 34/51/124
s 10
f 34/51/125 101/130/126 100/128/127 35/52/128
s 11
f 99/127/129 36/54/130 35/53/131 100/129/132
s 8
f 98/126/133 31/48/134 36/54/135 99/127/136
s 7
f 32/49/114 92/119/137 91/118/138 31/48/115
s 8
f 31/48/134 91/118/139 96/124/140 36/54/135
s 11
f 36/54/130 96/124/141 95/123/142 35/53/131
s 10
f 94/121/143 34/51/125 35/52/128 95/122/144
s 9
f 93/120/145 33/50/121 34/51/124 94/121/146
s 12
f 92/119/147 32/49/117 33/50/120 93/120/148
s 1
f 73/97/149 26/42/150 25/41/151 74/98/152
s 6
f 26/42/153 73/97/154 78/103/155 27/43/156
s 3
f 27/43/157 78/103/158 77/102/159 28/44/160
s 4
f 28/44/161 77/102/162 76/100/163 29/45/164
s 5
f 75/99/165 30/47/166 29/46/167 76/101/168
s 2
f 74/98/169 25/41/170 30/47/171 75/99/172
s 1
f 26/42/150 62/84/173 61/83/174 25/41/151
s 2
f 25/41/170 61/83/175 66/89/176 30/47/171
s 5
f 30/47/166 66/89/177 65/88/178 29/46/167
s 4
f 64/86/179 28/44/161 29/45/164 65/87/180
s 3
f 63/85/181 27/43/157 28/44/160 64/86/182
s 6
f 62/84/183 26/42/153 27/43/156 63/85/184
s 1
f 62/84/173 55/76/185 56/77/186 61/83/174
s 6
f 55/76/187 62/84/183 63/85/184 60/82/188
s 3
f 60/82/189 63/85/181 64/86/182 59/81/190
s 4
f 59/81/191 64/86/179 65/87/180 58/79/192
s 5
f 66/89/177 57/78/193 58/80/194 65/88/178
s 2
f 61/83/175 56/77/195 57/78/196 66/89/176
s 1
f 55/76/185 67/90/65 68/91/68 56/77/186
s 2
f 56/77/195 68/91/85 69/92/88 57/78/196
s 5
f 57/78/193 69/92/81 70/94/84 58/80/194
s 4
f 71/95/78 59/81/191 58/79/192 70/93/79
s 3
f 72/96/74 60/82/189 59/81/190 71/95/75
s 6
f 67/90/71 55/76/187 60/82/188 72/96/72
s 1
f 50/70/197 73/97/149 74/98/152 49/69/198
s 2
f 49/69/199 74/98/169 75/99/172 54/75/200
s 5
f 54/75/201 75/99/165 76/101/168 53/74/202
s 4
f 77/102/162 52/72/203 53/73/204 76/100/163
s 3
f 78/103/158 51/71/205 52/72/206 77/102/159
s 6
f 73/97/154 50/70/207 51/71/208 78/103/155
s 1
f 80/105/2 50/70/197 49/69/198 79/104/3
s 6
f 50/70/207 80/105/29 81/106/32 51/71/208
s 3
f 51/71/205 81/106/17 82/107/20 52/72/206
s 4
f 52/72/203 82/107/21 83/108/24 53/73/204
s 5
f 84/110/27 54/75/201 53/74/202 83/109/28
s 2
f 79/104/6 49/69/199 54/75/200 84/110/7
s 7
f 43/62/209 85/111/89 86/112/92 44/63/210
s 8
f 44/63/211 86/112/109 87/113/112 45/64/212
s 11
f 45/64/213 87/113/105 88/115/108 46/66/214
s 10
f 89/116/102 47/67/215 46/65/216 88/114/103
s 9
f 90/117/98 48/68/217 47/67/218 89/116/99
s 12
f 85/111/95 43/62/219 48/68/220 90/117/96
s 7
f 92/119/137 43/62/209 44/63/210 91/118/138
s 12
f 43/62/219 92/119/147 93/120/148 48/68/220
s 9
f 48/68/217 93/120/145 94/121/146 47/67/218
s 10
f 47/67/215 94/121/143 95/122/144 46/65/216
s 11
f 96/124/141 45/64/213 46/66/214 95/123/142
s 8
f 91/118/139 44/63/211 45/64/212 96/124/140
s 7
f 38/56/221 97/125/113 98/126/116 37/55/222
s 8
f 37/55/223 98/126/133 99/127/136 42/61/224
s 11
f 42/61/225 99/127/129 100/129/132 41/60/226
s 10
f 101/130/126 40/58/227 41/59/228 100/128/127
s 9
f 102/131/122 39/57/229 40/58/230 101/130/123
s 12
f 97/125/118 38/56/231 39/57/232 102/131/119
s 7
f 104/133/42 38/56/221 37/55/222 103/132/43
s 12
f 38/56/231 104/133/61 105/134/64 39/57/232
s 9
f 39/57/229 105/134/49 106/135/52 40/58/230
s 10
f 40/58/227 106/135/53 107/136/56 41/59/228
s 11
f 108/138/59 42/61/225 41/60/226 107/137/60
s 8
f 103/132/46 37/55/223 42/61/224 108/138/47
