# This file uses centimeters as units for non-parametric coordinates.

mtllib Inside_Corner_HP.mtl
g default
v 2.500000 1.000000 -0.498277
v 2.500000 0.000000 -0.498277
v 2.498268 1.000000 -0.500000
v 2.498268 0.000000 -0.500000
v 2.004019 0.985002 -2.970003
v 2.014998 0.995981 -2.970003
v 2.029997 1.000000 -2.970003
v 2.029997 0.995981 -2.985002
v 2.029997 0.985002 -2.995981
v 2.029997 0.970003 -3.000000
v 2.014998 0.970003 -2.995981
v 2.004019 0.970003 -2.985002
v 2.000000 0.970003 -2.970003
v 2.489478 0.970003 -3.000000
v 2.494739 0.985002 -2.995981
v 2.498590 0.995981 -2.985002
v 2.500000 1.000000 -2.970003
v 2.014998 0.004019 -2.970003
v 2.004019 0.014999 -2.970003
v 2.000000 0.029997 -2.970003
v 2.004019 0.029997 -2.985002
v 2.014998 0.029997 -2.995981
v 2.029997 0.029997 -3.000000
v 2.029997 0.014999 -2.995981
v 2.029997 0.004019 -2.985002
v 2.029997 0.000000 -2.970003
v 2.500000 0.029997 -3.000000
v 2.500000 0.014999 -2.995981
v 2.500000 0.004019 -2.985002
v 2.500000 0.000000 -2.970003
v 2.991300 0.604111 -2.969212
v 2.997776 0.590638 -2.969212
v 3.000000 0.575856 -2.969226
v 2.995211 0.575616 -2.984837
v 2.984646 0.579406 -2.996136
v 2.971233 0.586174 -3.000000
v 2.974329 0.600875 -2.996136
v 2.977969 0.611493 -2.984836
v 2.981147 0.615082 -2.969226
v 2.995981 0.014999 -2.970011
v 2.985002 0.004019 -2.970011
v 2.970003 0.000000 -2.970003
v 2.969991 0.004019 -2.985002
v 2.969991 0.014999 -2.995981
v 2.970003 0.029997 -3.000000
v 2.985002 0.029997 -2.995981
v 2.995981 0.029997 -2.985002
v 3.000000 0.029997 -2.970003
v 2.000000 0.029997 -0.995892
v 2.004019 0.014999 -0.991892
v 2.014998 0.004019 -0.980965
v 2.029997 0.000000 -0.966038
v 2.970003 0.000000 -0.030205
v 2.984972 0.004019 -0.015298
v 2.995973 0.014999 -0.004341
v 3.000000 0.029997 -0.000331
v 2.029997 1.000000 -0.966038
v 2.014998 0.995981 -0.980965
v 2.004019 0.985002 -0.991892
v 2.000000 0.970003 -0.995892
v 3.000000 0.576466 -0.000331
v 2.997800 0.590801 -0.002522
v 2.991365 0.604050 -0.008930
v 2.981623 0.614701 -0.018632
v 0.029997 0.014999 -0.995981
v 0.029997 0.004019 -0.985002
v 0.029997 0.000000 -0.970003
v 0.014998 0.004019 -0.970003
v 0.004019 0.014999 -0.970003
v 0.000000 0.029997 -0.970003
v 0.004019 0.029997 -0.985002
v 0.014998 0.029997 -0.995981
v 0.029997 0.029997 -1.000000
v 0.000000 0.029997 -0.500000
v 0.004019 0.014999 -0.500000
v 0.014998 0.004019 -0.500000
v 0.029997 0.000000 -0.500000
v 0.029997 0.995981 -0.985002
v 0.029997 0.985002 -0.995981
v 0.029997 0.970003 -1.000000
v 0.014998 0.970003 -0.995981
v 0.004019 0.970003 -0.985002
v 0.000000 0.970003 -0.970003
v 0.004019 0.985002 -0.970003
v 0.014998 0.995981 -0.970003
v 0.029997 1.000000 -0.970003
v 0.000000 0.970003 -0.510522
v 0.004019 0.985002 -0.505261
v 0.014998 0.995981 -0.501410
v 0.029997 1.000000 -0.500000
v 0.029989 0.004019 -0.015002
v 0.029989 0.014999 -0.004022
v 0.029997 0.029997 -0.000003
v 0.014999 0.029998 -0.004021
v 0.004019 0.029998 -0.015000
v 0.000000 0.029999 -0.029999
v 0.004019 0.014999 -0.030011
v 0.014998 0.004019 -0.030011
v 0.029997 0.000000 -0.030000
v 0.030789 0.590641 -0.002228
v 0.030789 0.604114 -0.008703
v 0.030774 0.615085 -0.018856
v 0.015164 0.611495 -0.022033
v 0.003865 0.600876 -0.025672
v 0.000000 0.586174 -0.028768
v 0.003864 0.579406 -0.015355
v 0.015165 0.575617 -0.004790
v 0.030776 0.575859 -0.000003
v 1.995872 0.970003 -1.000000
v 1.999910 0.985002 -0.995981
v 2.010942 0.995981 -0.985002
v 2.026013 1.000000 -0.970003
v 2.981549 0.614965 -0.018706
v 2.991329 0.604315 -0.008966
v 2.997791 0.591065 -0.002531
v 3.000000 0.576731 -0.000331
v 2.969882 0.000000 -0.030325
v 2.026013 0.000000 -0.970003
v 2.010942 0.004019 -0.985002
v 1.999910 0.014999 -0.995981
v 1.995872 0.029997 -1.000000
v 2.006275 0.982964 -2.982964
v 2.017036 0.993725 -2.982964
v 2.017036 0.982964 -2.993725
v 2.017036 0.006275 -2.982964
v 2.006275 0.017036 -2.982964
v 2.017036 0.017036 -2.993725
v 2.987749 0.602777 -2.982741
v 2.994515 0.588700 -2.982740
v 2.984867 0.592727 -2.993925
v 2.993730 0.017037 -2.982967
v 2.982967 0.006275 -2.982966
v 2.982962 0.017035 -2.993725
v 0.017036 0.017036 -0.993725
v 0.017036 0.006275 -0.982964
v 0.006275 0.017036 -0.982964
v 0.017036 0.993725 -0.982964
v 0.017036 0.982964 -0.993725
v 0.006275 0.982964 -0.982964
v 0.017034 0.006275 -0.017035
v 0.017033 0.017037 -0.006272
v 0.006275 0.017036 -0.017039
v 0.017261 0.588702 -0.005487
v 0.017260 0.602779 -0.012253
v 0.006075 0.592727 -0.015134
vt 0.679363 0.288740
vt 0.971154 0.279768
vt 0.801014 0.733939
vt 0.675003 0.436552
vt 0.970982 0.119219
vt 0.534852 0.119287
vt 0.666185 0.596355
vt 0.970979 0.112082
vt 0.971066 0.031398
vt 0.532116 0.031556
vt 0.342519 0.427630
vt 0.051945 0.436602
vt 0.346250 0.597760
vt 0.346922 0.279818
vt 0.051995 0.575545
vt 0.486542 0.575341
vt 0.479713 0.676583
vt 0.051800 0.031554
vt 0.051944 0.112239
vt 0.490827 0.112233
vt 0.734436 0.733266
vt 0.665192 0.676944
vt 0.734288 0.597044
vt 0.971211 0.436446
vt 0.971236 0.505918
vt 0.605888 0.506049
vt 0.971261 0.575390
vt 0.536772 0.575546
vt 0.971207 0.427579
vt 0.679412 0.427683
vt 0.971158 0.288635
vt 0.674947 0.279874
vt 0.605782 0.210427
vt 0.971129 0.210297
vt 0.532145 0.112330
vt 0.412886 0.597746
vt 0.479521 0.597731
vt 0.411424 0.731016
vt 0.051888 0.279924
vt 0.051864 0.210452
vt 0.416701 0.210321
vt 0.051946 0.119377
vt 0.488102 0.119191
vt 0.490799 0.031398
vt 0.346978 0.436496
vt 0.416807 0.505943
vt 0.051970 0.506073
vt 0.051891 0.288791
vt 0.342470 0.288687
vt 0.051941 0.427734
vt 0.802391 0.597733
vt 0.346280 0.731031
vt 0.971195 0.285678
vt 0.971193 0.282729
vt 0.733217 0.702995
vt 0.975589 0.280889
vt 0.769731 0.712208
vt 0.768569 0.713781
vt 0.975591 0.287193
vt 0.733248 0.699905
vt 0.733697 0.735375
vt 0.975563 0.210295
vt 0.732867 0.737597
vt 0.971250 0.433487
vt 0.971250 0.430538
vt 0.733950 0.630493
vt 0.975642 0.428806
vt 0.769601 0.612853
vt 0.770924 0.610109
vt 0.975644 0.435110
vt 0.733981 0.627403
vt 0.734293 0.594878
vt 0.975670 0.505916
vt 0.734332 0.592697
vt 0.971003 0.116820
vt 0.971003 0.114441
vt 0.694521 0.658926
vt 0.975528 0.111258
vt 0.682359 0.662060
vt 0.682995 0.666250
vt 0.975530 0.117616
vt 0.696982 0.663976
vt 0.973714 0.577353
vt 0.973517 0.026964
vt 0.972498 0.577100
vt 0.666031 0.592007
vt 0.975695 0.575590
vt 0.666121 0.594159
vt 0.664481 0.594963
vt 0.975499 0.028970
vt 0.662659 0.593560
vt 0.678162 0.430197
vt 0.676682 0.433175
vt 0.534296 0.284054
vt 0.532114 0.027122
vt 0.676628 0.283250
vt 0.678111 0.286226
vt 0.532970 0.114451
vt 0.533874 0.116773
vt 0.051904 0.430693
vt 0.051906 0.433642
vt 0.412893 0.627451
vt 0.047511 0.435269
vt 0.375103 0.610148
vt 0.377248 0.612858
vt 0.047508 0.428965
vt 0.412893 0.630474
vt 0.412902 0.595627
vt 0.047536 0.506075
vt 0.412885 0.593493
vt 0.051849 0.282879
vt 0.051849 0.285832
vt 0.412909 0.698390
vt 0.047458 0.287352
vt 0.377271 0.711588
vt 0.375225 0.710083
vt 0.047455 0.281048
vt 0.412909 0.701413
vt 0.412193 0.733114
vt 0.047430 0.210454
vt 0.412917 0.735269
vt 0.049353 0.029599
vt 0.049551 0.579980
vt 0.050572 0.030748
vt 0.482131 0.596764
vt 0.047366 0.031372
vt 0.480715 0.597170
vt 0.480635 0.595602
vt 0.047562 0.577943
vt 0.481818 0.593477
vt 0.051922 0.114614
vt 0.051924 0.116993
vt 0.448294 0.664476
vt 0.047397 0.118921
vt 0.460397 0.665476
vt 0.462048 0.663064
vt 0.047395 0.112642
vt 0.450720 0.659620
vt 0.343729 0.286179
vt 0.345223 0.283201
vt 0.489088 0.116674
vt 0.489997 0.114351
vt 0.490888 0.282149
vt 0.490995 0.579773
vt 0.345277 0.433114
vt 0.343780 0.430138
vt 0.733238 0.700888
vt 0.975590 0.285187
vt 0.733227 0.702012
vt 0.975589 0.282895
vt 0.849218 0.542675
vt 0.733971 0.628386
vt 0.975644 0.433104
vt 0.733960 0.629510
vt 0.975643 0.430811
vt 0.849890 0.541234
vt 0.696208 0.662387
vt 0.975529 0.115615
vt 0.695295 0.660516
vt 0.975529 0.113259
vt 0.798881 0.445675
vt 0.661882 0.591965
vt 0.975498 0.026963
vt 0.975696 0.579822
vt 0.664094 0.591987
vt 0.975695 0.577566
vt 0.664432 0.593612
vt 0.412893 0.629512
vt 0.047509 0.430970
vt 0.412893 0.628413
vt 0.047510 0.433263
vt 0.247751 0.541310
vt 0.412909 0.700451
vt 0.047456 0.283054
vt 0.412909 0.699352
vt 0.047457 0.285346
vt 0.247768 0.541460
vt 0.483773 0.593477
vt 0.047563 0.579981
vt 0.047364 0.027122
vt 0.482897 0.595230
vt 0.047365 0.029389
vt 0.481671 0.595638
vt 0.449956 0.661148
vt 0.047396 0.114619
vt 0.449057 0.662948
vt 0.047396 0.116945
vt 0.296774 0.445796
vn -0.007409 0.999971 -0.001773
vn -0.258677 0.965963 -0.001409
vn -0.258817 0.965926 0.000000
vn -0.002584 0.999997 0.000000
vn -0.707106 0.707106 -0.001494
vn -0.707106 0.707106 -0.001494
vn -0.707107 0.707107 0.000000
vn -0.707107 0.707107 0.000000
vn -0.965964 0.258671 -0.001423
vn -0.999989 0.004204 -0.002012
vn -0.999988 0.004876 0.000000
vn -0.965927 0.258814 0.000000
vn -0.008345 0.004152 -0.999957
vn -0.005968 0.258216 -0.966069
vn 0.093413 0.231799 -0.968268
vn 0.002768 0.006870 -0.999973
vn -0.006223 0.707093 -0.707094
vn -0.006223 0.707093 -0.707094
vn 0.425063 0.717347 -0.552028
vn 0.262663 0.641998 -0.720310
vn -0.005879 0.966067 -0.258226
vn 0.000000 0.999999 -0.001679
vn 0.000000 0.965926 -0.258817
vn -0.966003 0.002972 -0.258515
vn -0.966003 -0.002972 -0.258515
vn -0.999989 -0.004204 -0.002012
vn -0.707102 0.003131 -0.707105
vn -0.707102 0.003131 -0.707105
vn -0.707102 -0.003131 -0.707105
vn -0.707102 -0.003131 -0.707105
vn -0.258519 0.002972 -0.966002
vn -0.008343 -0.004220 -0.999956
vn -0.258519 -0.002972 -0.966002
vn -0.965964 -0.258671 -0.001423
vn -0.965927 -0.258814 0.000000
vn -0.999988 -0.004876 0.000000
vn -0.707107 -0.707105 -0.001494
vn -0.707107 -0.707105 -0.001494
vn -0.707107 -0.707106 0.000000
vn -0.707107 -0.707106 0.000000
vn -0.258676 -0.965963 -0.001409
vn -0.007409 -0.999971 -0.001776
vn -0.002584 -0.999997 0.000000
vn -0.258817 -0.965926 0.000000
vn 0.000000 -0.999999 -0.001616
vn 0.000000 -0.965927 -0.258816
vn 0.005862 -0.966066 -0.258230
vn 0.008989 -0.999959 -0.001461
vn 0.000000 -0.707106 -0.707107
vn 0.000000 -0.707106 -0.707107
vn 0.006178 -0.707092 -0.707095
vn 0.006178 -0.707092 -0.707095
vn 0.000000 -0.258816 -0.965927
vn 0.000000 -0.004690 -0.999989
vn 0.005991 -0.005222 -0.999968
vn 0.005865 -0.258229 -0.966066
vn 0.999991 0.003936 -0.001455
vn 0.955095 0.296299 -0.001314
vn 0.963352 0.268239 -0.000023
vn 0.999994 0.003576 -0.000001
vn 0.827548 0.561394 -0.001314
vn 0.854574 0.519330 -0.000020
vn 0.627683 0.778468 -0.001588
vn 0.631564 0.775324 -0.000001
vn 0.005220 0.002671 -0.999983
vn 0.469714 0.002955 -0.882814
vn 0.266558 -0.005614 -0.963803
vn 0.859262 0.003286 -0.511526
vn 0.867185 -0.004456 -0.497966
vn 0.718629 -0.004603 -0.695379
vn 0.999973 -0.007159 -0.001464
vn 0.258960 -0.965887 -0.000957
vn 0.259058 -0.965862 0.000001
vn 0.025048 -0.999686 0.000000
vn 0.706754 -0.707459 -0.000998
vn 0.706754 -0.707459 -0.000998
vn 0.706753 -0.707460 0.000005
vn 0.706753 -0.707460 0.000005
vn 0.965887 -0.258963 -0.000948
vn 0.999982 -0.006038 0.000000
vn 0.965861 -0.259060 0.000001
vn -0.001780 -0.999971 -0.007399
vn -0.001414 -0.965963 -0.258678
vn 0.000000 -0.965926 -0.258819
vn 0.000000 -0.999997 -0.002560
vn -0.001500 -0.707106 -0.707106
vn -0.001517 -0.500418 -0.865783
vn 0.000000 -0.556905 -0.830576
vn 0.000000 -0.707106 -0.707107
vn -0.002021 -0.004204 -0.999989
vn 0.000000 -0.004882 -0.999988
vn -0.999956 -0.004221 -0.008343
vn -0.866062 -0.499899 -0.006238
vn -0.866030 -0.499992 0.000000
vn -0.999989 -0.004690 0.000000
vn -0.499897 -0.866062 -0.006238
vn -0.500003 -0.866024 0.000000
vn -0.001619 -0.999999 0.000000
vn -0.499950 -0.003159 -0.866049
vn -0.499950 0.003159 -0.866049
vn -0.002021 0.004204 -0.999989
vn -0.707104 -0.003131 -0.707103
vn -0.707104 0.003131 -0.707103
vn -0.966002 -0.002972 -0.258519
vn -0.999957 0.004152 -0.008345
vn -0.966002 0.002972 -0.258519
vn -0.001517 0.500418 -0.865782
vn 0.000000 0.556905 -0.830576
vn 0.000000 0.004882 -0.999988
vn -0.001509 0.866475 -0.499219
vn 0.000000 0.916942 -0.399022
vn -0.001778 0.999971 -0.007399
vn 0.000000 0.999997 -0.002560
vn -0.001523 0.780865 0.624698
vn -0.494272 0.804552 0.329228
vn -0.511080 0.669350 0.539229
vn -0.001589 0.778465 0.627686
vn -0.720309 0.641998 0.262667
vn -0.882486 0.365610 0.295884
vn -0.968270 0.231794 0.093409
vn -0.999973 0.006870 0.002768
vn -0.999983 0.002671 0.005220
vn -0.001354 -0.007143 0.999974
vn -0.000844 -0.258483 0.966016
vn 0.000105 -0.258577 0.965991
vn 0.000110 -0.006020 0.999982
vn -0.000930 -0.706753 0.707459
vn -0.000963 -0.865743 0.500488
vn 0.000063 -0.797327 0.603548
vn 0.000074 -0.706752 0.707461
vn -0.001461 -0.999958 0.008998
vn 0.000003 -0.999682 0.025223
vn -0.999968 -0.005222 0.005991
vn -0.963798 -0.005615 0.266573
vn -0.882794 0.002955 0.469750
vn -0.695339 -0.004603 0.718667
vn -0.497896 -0.004456 0.867225
vn -0.511452 0.003287 0.859305
vn -0.001344 0.003935 0.999991
vn -0.001272 0.561374 0.827561
vn 0.000029 0.519036 0.854753
vn 0.000000 0.775286 0.631610
vn -0.001234 0.296313 0.955090
vn 0.000060 0.268039 0.963408
vn 0.000109 0.003573 0.999994
vn 0.000000 -1.000000 0.000000
vn 0.000000 1.000000 0.000000
vn 0.624695 0.780869 0.000000
vn 0.624698 0.780865 -0.001522
vn -0.001683 0.999999 0.000000
vn 0.000000 1.000000 0.000000
vn -0.000000 0.780869 0.624695
vn 0.000000 -1.000000 0.000000
vn 0.539233 0.669357 -0.511066
vn 0.295892 0.365620 -0.882479
vn -0.005870 -0.966067 -0.258226
vn -0.006180 -0.707093 -0.707094
vn -0.006180 -0.707093 -0.707094
vn -0.005870 -0.258226 -0.966067
vn -0.258239 -0.966063 0.005863
vn -0.866102 -0.499828 0.006236
vn -0.707104 -0.707083 0.006179
vn -0.499261 0.866429 -0.006264
vn -0.707093 0.707093 -0.006223
vn -0.966072 0.258205 -0.005968
vn -0.946105 0.229005 -0.229003
vn -0.707834 0.499490 -0.499480
vn -0.499474 0.707845 -0.499481
vn -0.229008 0.946104 -0.229005
vn -0.499473 0.499486 -0.707842
vn -0.229012 0.229009 -0.946102
vn -0.229010 -0.946103 -0.229004
vn -0.499475 -0.707843 -0.499482
vn -0.707837 -0.499487 -0.499480
vn -0.946102 -0.229012 -0.229009
vn -0.499473 -0.499485 -0.707843
vn -0.229018 -0.229009 -0.946100
vn 0.729368 0.541677 -0.417861
vn 0.878612 0.231133 -0.417874
vn 0.575387 0.276513 -0.769721
vn 0.946179 -0.228792 -0.228910
vn 0.707774 -0.499385 -0.499671
vn 0.499257 -0.707870 -0.499661
vn 0.228831 -0.946115 -0.229137
vn 0.499157 -0.499555 -0.708016
vn 0.228952 -0.229133 -0.946086
vn -0.229005 -0.229010 -0.946103
vn -0.499477 -0.499481 -0.707843
vn -0.499482 -0.707837 -0.499484
vn -0.229002 -0.946105 -0.229005
vn -0.707845 -0.499474 -0.499480
vn -0.946100 -0.229020 -0.229009
vn -0.228999 0.946106 -0.229005
vn -0.499483 0.707835 -0.499486
vn -0.499480 0.499475 -0.707844
vn -0.229006 0.229010 -0.946103
vn -0.707845 0.499476 -0.499479
vn -0.946101 0.229014 -0.229008
vn -0.229132 -0.946115 0.228832
vn -0.499645 -0.707871 0.499273
vn -0.499643 -0.499386 0.707792
vn -0.228836 -0.228785 0.946198
vn -0.708014 -0.499541 0.499175
vn -0.946091 -0.229117 0.228947
vn -0.417810 0.231125 0.878645
vn -0.417843 0.541674 0.729381
vn -0.769699 0.276510 0.575419
s 1
g Inside_Corner_HP
usemtl Inside_Wall_LP:initialShadingGroup
f 7/2/1 6/54/2 58/96/3 57/32/4
s 2
f 6/54/5 5/53/6 59/97/7 58/96/8
s 3
f 5/53/9 13/31/10 60/1/11 59/97/12
s 2
f 10/3/13 9/57/14 15/61/15 14/21/16
f 9/57/17 8/55/18 16/63/19 15/61/20
s 1
f 8/56/21 7/2/1 17/34/22 16/62/23
s 3
f 13/31/10 12/59/24 21/67/25 20/29/26
s 2
f 12/60/27 11/58/28 22/68/29 21/66/30
f 11/58/31 10/3/13 23/51/32 22/68/33
s 3
f 20/29/26 19/65/34 50/92/35 49/30/36
s 2
f 19/65/37 18/64/38 51/93/39 50/92/40
s 8
f 18/64/41 26/24/42 52/4/43 51/93/44
f 30/25/45 29/73/46 43/87/47 42/27/48
s 2
f 29/74/49 28/72/50 44/88/51 43/86/52
f 28/72/53 27/23/54 45/7/55 44/88/56
f 33/8/57 32/76/58 62/98/59 61/35/60
f 32/76/58 31/75/61 63/99/62 62/98/59
f 31/75/61 39/5/63 64/6/64 63/99/62
f 36/22/65 35/79/66 46/89/67 45/7/55
f 35/79/66 34/77/68 47/91/69 46/89/70
f 34/78/68 33/8/57 48/9/71 47/90/69
s 8
f 42/27/48 41/85/72 54/94/73 53/28/74
s 2
f 41/85/75 40/83/76 55/95/77 54/94/78
f 40/84/79 48/9/71 56/10/80 55/95/81
s 16
f 67/12/82 66/101/83 119/145/84 118/45/85
f 66/101/86 65/100/87 120/146/88 119/145/89
f 65/100/87 73/50/90 121/11/91 120/146/88
f 70/13/92 69/104/93 75/108/94 74/36/95
f 69/104/93 68/102/96 76/110/97 75/108/94
f 68/103/96 67/12/82 77/47/98 76/109/97
f 73/50/90 72/106/99 81/114/100 80/48/101
f 72/107/99 71/105/102 82/115/103 81/113/100
f 71/105/104 70/13/92 83/52/105 82/115/106
f 80/48/101 79/112/107 110/139/108 109/49/109
f 79/112/107 78/111/110 111/140/111 110/139/108
f 78/111/110 86/39/112 112/14/113 111/140/111
f 90/40/114 89/120/115 103/134/116 102/42/117
f 89/121/115 88/119/118 104/135/119 103/133/116
f 88/119/120 87/38/121 105/17/122 104/135/119
f 93/18/123 92/124/124 55/143/125 56/44/126
f 92/124/127 91/122/128 54/144/129 55/143/130
f 91/123/128 99/15/131 117/16/132 54/144/129
f 96/37/133 95/127/134 106/136/135 105/17/122
f 95/127/136 94/125/137 107/138/138 106/136/135
f 94/126/137 93/18/123 108/19/139 107/137/138
f 102/42/117 101/132/140 114/141/141 113/43/142
f 101/132/140 100/131/143 115/142/144 114/141/141
f 100/131/143 108/19/139 116/20/145 115/142/144
s 2
f 10/3/13 14/21/16 27/23/54 23/51/32
f 14/21/16 36/22/65 45/7/55 27/23/54
s 8
f 26/24/42 30/25/45 2/26/146 52/4/43
f 30/25/45 42/27/48 53/28/74 2/26/146
s 3
f 20/29/26 49/30/36 60/1/11 13/31/10
s 1
f 7/2/1 57/32/4 1/33/147 17/34/22
s 2
f 1/33/148 64/6/64 39/5/63 17/34/149
f 33/8/57 61/35/60 56/10/80 48/9/71
s 16
f 70/13/92 74/36/95 87/38/121 83/52/105
f 74/36/95 96/37/133 105/17/122 87/38/121
f 86/39/112 90/40/150 3/41/151 112/14/113
f 90/40/114 102/42/117 113/43/142 3/41/152
f 93/18/123 56/44/126 116/20/145 108/19/139
f 67/12/82 118/45/85 4/46/153 77/47/98
f 4/46/153 117/16/132 99/15/131 77/47/98
f 80/48/101 109/49/109 121/11/91 73/50/90
s 2
f 16/62/19 17/34/149 39/5/63 38/81/154
f 14/21/16 15/61/15 37/80/155 36/22/65
f 15/61/20 16/63/19 38/82/154 37/80/155
s 8
f 26/24/42 25/70/156 29/73/46 30/25/45
s 2
f 25/71/157 24/69/158 28/72/50 29/74/49
f 24/69/159 23/51/32 27/23/54 28/72/53
s 16
f 76/109/97 77/47/98 99/15/131 98/129/160
f 74/36/95 75/108/94 97/128/161 96/37/133
f 75/108/94 76/110/97 98/130/162 97/128/161
f 86/39/112 85/117/163 89/120/115 90/40/150
f 85/118/163 84/116/164 88/119/118 89/121/115
f 84/116/165 83/52/105 87/38/121 88/119/120
s 3
f 12/59/24 13/31/10 5/53/9 122/148/166
s 2
f 122/148/167 5/53/6 6/54/5 123/150/168
s 1
f 6/54/2 7/2/1 8/56/21 123/150/169
s 2
f 123/149/168 8/55/18 9/57/17 124/151/170
f 9/57/14 10/3/13 11/58/31 124/151/171
f 124/151/170 11/58/28 12/60/27 122/147/167
f 122/147/167 123/149/168 124/151/170
s 8
f 25/70/156 26/24/42 18/64/41 125/153/172
s 2
f 125/153/173 18/64/38 19/65/37 126/155/174
s 3
f 19/65/34 20/29/26 21/67/25 126/155/175
s 2
f 126/154/174 21/66/30 22/68/29 127/156/176
f 22/68/33 23/51/32 24/69/159 127/156/177
f 127/156/176 24/69/158 25/71/157 125/152/173
f 125/152/173 126/154/174 127/156/176
f 38/81/154 39/5/63 31/75/61 128/158/178
f 128/158/178 31/75/61 32/76/58 129/160/179
f 32/76/58 33/8/57 34/78/68 129/160/179
f 129/159/179 34/77/68 35/79/66 130/161/180
f 35/79/66 36/22/65 37/80/155 130/161/180
f 130/161/180 37/80/155 38/82/154 128/157/178
f 128/157/178 129/159/179 130/161/180
f 47/90/69 48/9/71 40/84/79 131/163/181
f 131/164/182 40/83/76 41/85/75 132/166/183
s 8
f 41/85/72 42/27/48 43/87/47 132/166/184
s 2
f 132/165/183 43/86/52 44/88/51 133/167/185
f 44/88/56 45/7/55 46/89/67 133/167/186
f 133/167/185 46/89/70 47/91/69 131/162/182
f 131/162/182 132/165/183 133/167/185
s 16
f 72/106/99 73/50/90 65/100/87 134/169/187
f 134/169/188 65/100/87 66/101/86 135/171/189
f 66/101/83 67/12/82 68/103/96 135/171/190
f 135/170/189 68/102/96 69/104/93 136/172/191
f 69/104/93 70/13/92 71/105/104 136/172/192
f 136/172/191 71/105/102 72/107/99 134/168/188
f 134/168/188 135/170/189 136/172/191
f 85/117/163 86/39/112 78/111/110 137/174/193
f 137/174/194 78/111/110 79/112/107 138/176/195
f 79/112/107 80/48/101 81/114/100 138/176/196
f 138/175/195 81/113/100 82/115/103 139/177/197
f 82/115/106 83/52/105 84/116/165 139/177/198
f 139/177/197 84/116/164 85/118/163 137/173/194
f 137/173/194 138/175/195 139/177/197
f 98/129/160 99/15/131 91/123/128 140/179/199
f 140/180/200 91/122/128 92/124/127 141/182/201
f 92/124/124 93/18/123 94/126/137 141/182/202
f 141/181/201 94/125/137 95/127/136 142/183/203
f 95/127/134 96/37/133 97/128/161 142/183/204
f 142/183/203 97/128/161 98/130/162 140/178/200
f 140/178/200 141/181/201 142/183/203
f 107/137/138 108/19/139 100/131/143 143/185/205
f 143/185/205 100/131/143 101/132/140 144/187/206
f 101/132/140 102/42/117 103/134/116 144/187/206
f 144/186/206 103/133/116 104/135/119 145/188/207
f 104/135/119 105/17/122 106/136/135 145/188/207
f 145/188/207 106/136/135 107/138/138 143/184/205
f 143/184/205 144/186/206 145/188/207
