# This file uses centimeters as units for non-parametric coordinates.

mtllib testtest.mtl
g default
v 0.309109 0.000000 -3.043271
v 0.657582 0.000000 -2.684709
v 1.006055 0.000000 -2.326147
v 0.309109 1.000000 -3.043271
v 0.657582 1.000000 -2.684709
v 1.006055 0.600000 -2.326147
v 3.374221 1.000000 -4.265216
v 3.374221 1.000000 -3.765216
v 3.374221 0.600000 -3.265216
v 3.374221 0.000000 -4.265216
v 3.374221 0.000000 -3.765216
v 3.374221 0.000000 -3.265216
v -0.999560 0.000000 -0.007132
v -0.499611 0.000000 0.000002
v 0.000338 0.000000 0.007136
v -0.999560 1.000000 -0.007132
v -0.499611 1.000000 0.000002
v 0.000338 0.600000 0.007136
v 0.309109 1.000000 -3.043271
v 0.657582 1.000000 -2.684709
v 1.006055 0.600000 -2.326147
v 0.309109 0.000000 -3.043271
v 0.657582 0.000000 -2.684709
v 1.006055 0.000000 -2.326147
v 1.908476 1.000000 -3.494955
v 1.723745 1.000000 -3.959578
v 1.723745 0.000000 -3.959578
v 1.908476 0.000000 -3.494955
v 2.093207 0.000000 -3.030332
v 2.093207 0.600000 -3.030332
v -0.188026 1.000000 -1.457444
v -0.647188 1.000000 -1.655357
v -0.647188 0.000000 -1.655357
v -0.188026 0.000000 -1.457444
v 0.271137 0.000000 -1.259531
v 0.271137 0.600000 -1.259531
v -0.415591 1.000000 -0.744065
v -0.904542 1.000000 -0.848597
v -0.904542 0.000000 -0.848597
v -0.415591 0.000000 -0.744065
v 0.073360 0.000000 -0.639533
v 0.073360 0.600000 -0.639533
v -0.237388 1.000000 -2.396408
v 0.174341 1.000000 -2.112719
v 0.586070 0.600000 -1.829031
v 0.586070 0.000000 -1.829031
v 0.174341 0.000000 -2.112719
v -0.237388 0.000000 -2.396408
v 1.243128 1.000000 -3.151433
v 0.971303 1.000000 -3.571089
v 0.971303 0.000000 -3.571089
v 1.243128 0.000000 -3.151433
v 1.514953 0.000000 -2.731777
v 1.514953 0.600000 -2.731777
v 2.537519 1.000000 -4.193807
v 2.628058 1.000000 -3.702073
v 2.718596 0.600000 -3.210338
v 2.718596 0.000000 -3.210338
v 2.628058 0.000000 -3.702073
v 2.537519 0.000000 -4.193807
v 2.263180 1.000000 -3.616189
v 2.124879 1.000000 -4.096682
v 2.124879 0.000000 -4.096682
v 2.263180 0.000000 -3.616189
v 2.401480 0.000000 -3.135697
v 2.401480 0.600000 -3.135697
v 2.957693 1.000000 -4.250019
v 2.999597 1.000000 -3.751778
v 3.041501 0.600000 -3.253537
v 3.041501 0.000000 -3.253537
v 2.999597 0.000000 -3.751778
v 2.957693 0.000000 -4.250019
v 1.337981 1.000000 -3.783816
v 1.567364 1.000000 -3.339537
v 1.796747 0.600000 -2.895258
v 1.796747 0.000000 -2.895258
v 1.567364 0.000000 -3.339537
v 1.337981 0.000000 -3.783816
v 0.938891 1.000000 -2.932454
v 0.627241 1.000000 -3.323446
v 0.627241 0.000000 -3.323446
v 0.938891 0.000000 -2.932454
v 1.250540 0.000000 -2.541463
v 1.250540 0.600000 -2.541463
v 0.019971 1.000000 -2.733263
v 0.401912 1.000000 -2.410584
v 0.783852 0.600000 -2.087905
v 0.783852 0.000000 -2.087905
v 0.401912 0.000000 -2.410584
v 0.019971 0.000000 -2.733263
v -0.022938 1.000000 -1.793982
v -0.460491 1.000000 -2.035949
v -0.460491 0.000000 -2.035949
v -0.022938 0.000000 -1.793982
v 0.414615 0.000000 -1.552016
v 0.414615 0.600000 -1.552016
v -0.795682 1.000000 -1.258299
v -0.319331 1.000000 -1.106344
v 0.157019 0.600000 -0.954390
v 0.157019 0.000000 -0.954390
v -0.319331 0.000000 -1.106344
v -0.795682 0.000000 -1.258299
v -0.475878 1.000000 -0.374095
v -0.972721 1.000000 -0.430199
v -0.972721 0.000000 -0.430199
v -0.475878 0.000000 -0.374095
v 0.020964 0.000000 -0.317992
v 0.020964 0.600000 -0.317992
vt 0.080057 0.284359
vt 0.080031 0.210454
vt 0.523463 0.210295
vt 0.523490 0.284200
vt 0.079997 0.115809
vt 0.523429 0.115649
vt 0.805317 0.738330
vt 0.732867 0.737597
vt 0.734332 0.592697
vt 0.806782 0.593430
vt 0.661003 0.678905
vt 0.661882 0.591965
vt 0.523543 0.432011
vt 0.523570 0.505916
vt 0.080137 0.506075
vt 0.080110 0.432170
vt 0.523596 0.579822
vt 0.080164 0.579981
vt 0.079965 0.027122
vt 0.523398 0.026963
vt 0.270267 0.593508
vt 0.341155 0.593493
vt 0.341187 0.735269
vt 0.270298 0.735285
vt 0.412043 0.593477
vt 0.412062 0.678542
vt 0.532157 0.284359
vt 0.532131 0.210454
vt 0.975563 0.210295
vt 0.975590 0.284200
vt 0.532097 0.115809
vt 0.975529 0.115649
vt 0.975643 0.432011
vt 0.975670 0.505916
vt 0.532237 0.506075
vt 0.532210 0.432170
vt 0.975696 0.579822
vt 0.532264 0.579981
vt 0.532065 0.027122
vt 0.975498 0.026963
vt 0.301747 0.210375
vt 0.301773 0.284280
vt 0.301826 0.432091
vt 0.301853 0.505996
vt 0.301880 0.579902
vt 0.301681 0.027043
vt 0.301713 0.115729
vt 0.753847 0.210375
vt 0.753873 0.284280
vt 0.753927 0.432091
vt 0.753953 0.505996
vt 0.753980 0.579902
vt 0.753781 0.027043
vt 0.753813 0.115729
vt 0.642989 0.210414
vt 0.643015 0.284319
vt 0.643068 0.432130
vt 0.643095 0.506035
vt 0.643122 0.579941
vt 0.642923 0.027082
vt 0.642955 0.115769
vt 0.864732 0.284240
vt 0.864705 0.210335
vt 0.864671 0.115689
vt 0.864838 0.579862
vt 0.864640 0.027003
vt 0.864812 0.505956
vt 0.864785 0.432051
vt 0.190889 0.210414
vt 0.190915 0.284319
vt 0.190968 0.432130
vt 0.190995 0.506035
vt 0.191022 0.579941
vt 0.190823 0.027082
vt 0.190855 0.115769
vt 0.412632 0.284240
vt 0.412605 0.210335
vt 0.412571 0.115689
vt 0.412738 0.579862
vt 0.412540 0.027003
vt 0.412712 0.505956
vt 0.412685 0.432051
vt 0.357176 0.210355
vt 0.357203 0.284260
vt 0.357256 0.432071
vt 0.357283 0.505976
vt 0.357309 0.579882
vt 0.357111 0.027023
vt 0.357142 0.115709
vt 0.468061 0.284220
vt 0.468034 0.210315
vt 0.468000 0.115669
vt 0.468167 0.579842
vt 0.467969 0.026983
vt 0.468141 0.505936
vt 0.468114 0.432031
vt 0.246344 0.284299
vt 0.246318 0.210394
vt 0.246284 0.115749
vt 0.246451 0.579921
vt 0.246252 0.027062
vt 0.246424 0.506015
vt 0.246397 0.432110
vt 0.135460 0.210434
vt 0.135486 0.284339
vt 0.135539 0.432150
vt 0.135566 0.506055
vt 0.135593 0.579961
vt 0.135394 0.027102
vt 0.135426 0.115789
vt 0.920161 0.284220
vt 0.920134 0.210315
vt 0.920100 0.115669
vt 0.920267 0.579842
vt 0.920069 0.026983
vt 0.920241 0.505936
vt 0.920214 0.432031
vt 0.809276 0.210355
vt 0.809303 0.284260
vt 0.809356 0.432071
vt 0.809383 0.505976
vt 0.809409 0.579882
vt 0.809211 0.027023
vt 0.809242 0.115709
vt 0.698444 0.284299
vt 0.698418 0.210394
vt 0.698384 0.115749
vt 0.698551 0.579921
vt 0.698352 0.027062
vt 0.698524 0.506015
vt 0.698497 0.432110
vt 0.587560 0.210434
vt 0.587586 0.284339
vt 0.587639 0.432150
vt 0.587666 0.506055
vt 0.587693 0.579961
vt 0.587494 0.027102
vt 0.587526 0.115789
vn 0.000000 1.000000 0.000000
vn 0.371391 0.928477 0.000000
vn 0.000000 1.000000 -0.000000
vn 0.000000 1.000000 -0.000000
vn 0.371391 0.928477 0.000000
vn 0.624695 0.780869 0.000000
vn 0.389372 0.780869 0.488501
vn 0.389372 0.780869 0.488501
vn 0.000000 0.000000 -1.000000
vn 0.000000 0.000000 -1.000000
vn 0.000000 0.000000 -1.000000
vn 0.000000 0.000000 -1.000000
vn 0.000000 0.000000 -1.000000
vn 0.000000 0.000000 -1.000000
vn 0.000000 0.000000 -1.000000
vn 0.000000 0.000000 -1.000000
vn 0.000000 -1.000000 0.000000
vn 0.000000 -1.000000 0.000000
vn 0.000000 -1.000000 0.000000
vn 0.000000 -1.000000 0.000000
vn 0.000000 -1.000000 0.000000
vn 0.000000 -1.000000 0.000000
vn 0.000000 -1.000000 0.000000
vn 0.000000 -1.000000 0.000000
vn 1.000000 0.000000 0.000000
vn 0.623299 0.000000 0.781983
vn 0.623299 0.000000 0.781983
vn 1.000000 0.000000 0.000000
vn -0.623299 0.000000 -0.781983
vn -0.623299 0.000000 -0.781983
vn -1.000000 0.000000 0.000000
vn -1.000000 0.000000 0.000000
vn 0.000000 0.000000 1.000000
vn 0.000000 0.000000 1.000000
vn 0.000000 0.000000 1.000000
vn 0.000000 0.000000 1.000000
vn 0.000000 0.000000 1.000000
vn 0.000000 0.000000 1.000000
vn 0.000000 0.000000 1.000000
vn 0.000000 0.000000 1.000000
vn 0.000000 1.000000 0.000000
vn 0.371391 0.928477 0.000000
vn 0.000000 1.000000 0.000000
vn 0.000000 1.000000 0.000000
vn 0.371391 0.928477 0.000000
vn 0.624695 0.780869 0.000000
vn 0.620750 0.780869 0.070095
vn 0.620750 0.780869 0.070095
vn 0.000000 -1.000000 0.000000
vn 0.000000 -1.000000 0.000000
vn 0.000000 -1.000000 0.000000
vn 0.000000 -1.000000 0.000000
vn 0.000000 -1.000000 0.000000
vn 0.000000 -1.000000 0.000000
vn 0.000000 -1.000000 0.000000
vn 0.000000 -1.000000 0.000000
vn 1.000000 0.000000 0.000000
vn 0.993685 0.000000 0.112207
vn 0.993685 0.000000 0.112207
vn 1.000000 0.000000 0.000000
vn -0.993685 0.000000 -0.112207
vn -0.993685 0.000000 -0.112207
vn -1.000000 0.000000 0.000000
vn -1.000000 0.000000 0.000000
vn 0.000000 1.000000 0.000000
vn 0.000000 1.000000 0.000000
vn 0.371391 0.928477 0.000000
vn 0.000000 1.000000 0.000000
vn -1.000000 0.000000 0.000000
vn -0.085037 0.000000 -0.996378
vn -0.085037 0.000000 -0.996378
vn -1.000000 0.000000 0.000000
vn 0.000000 -1.000000 0.000000
vn 0.000000 -1.000000 0.000000
vn 0.000000 -1.000000 0.000000
vn 0.000000 -1.000000 0.000000
vn 0.000000 -1.000000 0.000000
vn 0.000000 -1.000000 0.000000
vn 0.000000 -1.000000 0.000000
vn 0.000000 -1.000000 0.000000
vn 0.083412 0.000000 0.996515
vn 0.083412 0.000000 0.996515
vn 1.000000 0.000000 0.000000
vn 1.000000 0.000000 0.000000
vn 0.052398 0.780911 0.622441
vn 0.052408 0.780910 0.622441
vn 0.624695 0.780869 0.000000
vn 0.371391 0.928477 0.000000
vn 0.000000 1.000000 0.000000
vn 0.000000 1.000000 0.000000
vn 0.371391 0.928477 0.000000
vn 0.000000 1.000000 0.000000
vn -1.000000 0.000000 0.000000
vn -0.763880 0.000000 -0.645358
vn -0.763880 0.000000 -0.645358
vn -1.000000 0.000000 0.000000
vn 0.000000 -1.000000 0.000000
vn 0.000000 -1.000000 0.000000
vn 0.000000 -1.000000 0.000000
vn 0.000000 -1.000000 0.000000
vn 0.000000 -1.000000 0.000000
vn 0.000000 -1.000000 0.000000
vn 0.000000 -1.000000 0.000000
vn 0.000000 -1.000000 0.000000
vn 0.763880 0.000000 0.645358
vn 0.763880 0.000000 0.645358
vn 1.000000 0.000000 0.000000
vn 1.000000 0.000000 0.000000
vn 0.477192 0.780869 0.403152
vn 0.477192 0.780869 0.403152
vn 0.624695 0.780869 0.000000
vn 0.371391 0.928477 0.000000
vn 0.000000 1.000000 -0.000000
vn 0.000000 1.000000 -0.000000
vn 0.000000 1.000000 -0.000000
vn 0.000000 1.000000 -0.000000
vn -0.918325 0.000000 -0.395827
vn -0.918325 0.000000 -0.395827
vn -0.952701 0.000000 -0.303909
vn -0.952701 0.000000 -0.303909
vn 0.000000 -1.000000 0.000000
vn 0.000000 -1.000000 0.000000
vn 0.000000 -1.000000 0.000000
vn 0.000000 -1.000000 0.000000
vn 0.000000 -1.000000 0.000000
vn 0.000000 -1.000000 0.000000
vn 0.000000 -1.000000 0.000000
vn 0.000000 -1.000000 0.000000
vn 0.952701 0.000000 0.303909
vn 0.952701 0.000000 0.303909
vn 0.918325 0.000000 0.395826
vn 0.918325 0.000000 0.395826
vn 0.595148 0.780869 0.189850
vn 0.595148 0.780869 0.189850
vn 0.573673 0.780869 0.247271
vn 0.573673 0.780869 0.247271
vn 0.000000 1.000000 0.000000
vn 0.000000 1.000000 0.000000
vn 0.546674 0.780869 0.302310
vn 0.546674 0.780869 0.302310
vn 0.875105 0.000000 0.483932
vn 0.875105 0.000000 0.483932
vn 0.000000 -1.000000 0.000000
vn 0.000000 -1.000000 0.000000
vn 0.000000 -1.000000 0.000000
vn 0.000000 -1.000000 0.000000
vn -0.875106 0.000000 -0.483932
vn -0.875106 0.000000 -0.483932
vn 0.000000 1.000000 0.000000
vn 0.000000 1.000000 0.000000
vn 0.000000 1.000000 0.000000
vn 0.000000 1.000000 0.000000
vn -0.369463 0.000000 -0.929246
vn -0.369463 0.000000 -0.929246
vn -0.458765 0.000000 -0.888558
vn -0.458765 0.000000 -0.888558
vn 0.000000 -1.000000 0.000000
vn 0.000000 -1.000000 0.000000
vn 0.000000 -1.000000 0.000000
vn 0.000000 -1.000000 0.000000
vn 0.000000 -1.000000 0.000000
vn 0.000000 -1.000000 0.000000
vn 0.000000 -1.000000 0.000000
vn 0.000000 -1.000000 0.000000
vn 0.458765 0.000000 0.888557
vn 0.458765 0.000000 0.888557
vn 0.369463 0.000000 0.929246
vn 0.369463 0.000000 0.929246
vn 0.286589 0.780869 0.555077
vn 0.286589 0.780869 0.555077
vn 0.230801 0.780869 0.580495
vn 0.230801 0.780869 0.580495
vn 0.000000 1.000000 0.000000
vn 0.000000 1.000000 0.000000
vn 0.172791 0.780869 0.600323
vn 0.172791 0.780869 0.600323
vn 0.276601 0.000000 0.960985
vn 0.276601 0.000000 0.960985
vn 0.000000 -1.000000 0.000000
vn 0.000000 -1.000000 0.000000
vn 0.000000 -1.000000 0.000000
vn 0.000000 -1.000000 0.000000
vn -0.276601 0.000000 -0.960985
vn -0.276601 0.000000 -0.960985
vn 0.000000 1.000000 0.000000
vn 0.000000 1.000000 0.000000
vn -0.181076 0.000000 -0.983469
vn -0.181076 0.000000 -0.983469
vn 0.000000 -1.000000 0.000000
vn 0.000000 -1.000000 0.000000
vn 0.000000 -1.000000 0.000000
vn 0.000000 -1.000000 0.000000
vn 0.181077 0.000000 0.983469
vn 0.181077 0.000000 0.983469
vn 0.113118 0.780869 0.614368
vn 0.113118 0.780869 0.614368
vn 0.000000 1.000000 0.000000
vn 0.000000 1.000000 0.000000
vn 0.339616 0.780869 0.524314
vn 0.339616 0.780869 0.524314
vn 0.543650 0.000000 0.839312
vn 0.543650 0.000000 0.839312
vn 0.000000 -1.000000 0.000000
vn 0.000000 -1.000000 0.000000
vn 0.000000 -1.000000 0.000000
vn 0.000000 -1.000000 0.000000
vn -0.543650 0.000000 -0.839312
vn -0.543650 0.000000 -0.839312
vn 0.000000 1.000000 0.000000
vn 0.000000 1.000000 0.000000
vn 0.514410 0.780869 0.354438
vn 0.514410 0.780869 0.354438
vn 0.823458 0.000000 0.567377
vn 0.823458 0.000000 0.567377
vn 0.000000 -1.000000 0.000000
vn 0.000000 -1.000000 0.000000
vn 0.000000 -1.000000 0.000000
vn 0.000000 -1.000000 0.000000
vn -0.823458 0.000000 -0.567377
vn -0.823458 0.000000 -0.567377
vn 0.000000 1.000000 0.000000
vn 0.000000 1.000000 0.000000
vn 0.610891 0.780869 0.130602
vn 0.610891 0.780869 0.130602
vn 0.977902 0.000000 0.209065
vn 0.977902 0.000000 0.209065
vn 0.000000 -1.000000 0.000000
vn 0.000000 -1.000000 0.000000
vn 0.000000 -1.000000 0.000000
vn 0.000000 -1.000000 0.000000
vn -0.977902 0.000000 -0.209064
vn -0.977902 0.000000 -0.209064
s 1
g Wall_LP8
usemtl Wall_LP:initialShadingGroup
f 4/1/1 5/2/2 79/104/3 80/105/4
s 2
f 5/2/5 6/5/6 84/110/7 79/104/8
s off
f 7/7/9 8/8/10 11/9/11 10/10/12
f 8/8/13 9/11/14 12/12/15 11/9/16
s 3
f 81/106/17 82/107/18 2/15/19 1/16/20
s 4
f 82/107/21 83/108/22 3/18/23 2/15/24
s 5
f 3/19/25 83/109/26 84/110/27 6/5/28
s 6
f 80/105/29 81/106/30 1/16/31 4/1/32
s off
f 13/21/33 14/22/34 17/23/35 16/24/36
f 14/22/37 15/25/38 18/26/39 17/23/40
s 7
f 16/27/41 17/28/42 103/132/43 104/133/44
s 8
f 17/28/45 18/31/46 108/138/47 103/132/48
s 9
f 105/134/49 106/135/50 14/35/51 13/36/52
s 10
f 106/135/53 107/136/54 15/38/55 14/35/56
s 11
f 15/39/57 107/137/58 108/138/59 18/31/60
s 12
f 104/133/61 105/134/62 13/36/63 16/27/64
s 1
f 67/90/65 68/91/66 8/3/67 7/4/68
s 6
f 10/13/69 72/96/70 67/90/71 7/4/72
s 3
f 10/13/73 11/14/74 71/95/75 72/96/76
s 4
f 11/14/77 12/17/78 70/93/79 71/95/80
s 5
f 69/92/81 70/94/82 12/20/83 9/6/84
s 2
f 68/91/85 69/92/86 9/6/87 8/3/88
s 7
f 85/111/89 86/112/90 20/29/91 19/30/92
s 12
f 22/33/93 90/117/94 85/111/95 19/30/96
s 9
f 22/33/97 23/34/98 89/116/99 90/117/100
s 10
f 23/34/101 24/37/102 88/114/103 89/116/104
s 11
f 87/113/105 88/115/106 24/40/107 21/32/108
s 8
f 86/112/109 87/113/110 21/32/111 20/29/112
s 7
f 97/125/113 98/126/114 31/48/115 32/49/116
s 12
f 32/49/117 33/50/118 102/131/119 97/125/120
s 9
f 33/50/121 34/51/122 101/130/123 102/131/124
s 10
f 34/51/125 35/52/126 100/128/127 101/130/128
s 11
f 99/127/129 100/129/130 35/53/131 36/54/132
s 8
f 98/126/133 99/127/134 36/54/135 31/48/136
s 7
f 32/49/116 31/48/115 91/118/137 92/119/138
s 8
f 31/48/136 36/54/135 96/124/139 91/118/140
s 11
f 36/54/132 35/53/131 95/123/141 96/124/142
s 10
f 94/121/143 95/122/144 35/52/126 34/51/125
s 9
f 93/120/145 94/121/146 34/51/122 33/50/121
s 12
f 92/119/147 93/120/148 33/50/118 32/49/117
s 1
f 73/97/149 74/98/150 25/41/151 26/42/152
s 6
f 26/42/153 27/43/154 78/103/155 73/97/156
s 3
f 27/43/157 28/44/158 77/102/159 78/103/160
s 4
f 28/44/161 29/45/162 76/100/163 77/102/164
s 5
f 75/99/165 76/101/166 29/46/167 30/47/168
s 2
f 74/98/169 75/99/170 30/47/171 25/41/172
s 1
f 26/42/152 25/41/151 61/83/173 62/84/174
s 2
f 25/41/172 30/47/171 66/89/175 61/83/176
s 5
f 30/47/168 29/46/167 65/88/177 66/89/178
s 4
f 64/86/179 65/87/180 29/45/162 28/44/161
s 3
f 63/85/181 64/86/182 28/44/158 27/43/157
s 6
f 62/84/183 63/85/184 27/43/154 26/42/153
s 1
f 62/84/174 61/83/173 56/77/185 55/76/186
s 6
f 55/76/187 60/82/188 63/85/184 62/84/183
s 3
f 60/82/189 59/81/190 64/86/182 63/85/181
s 4
f 59/81/191 58/79/192 65/87/180 64/86/179
s 5
f 66/89/178 65/88/177 58/80/193 57/78/194
s 2
f 61/83/176 66/89/175 57/78/195 56/77/196
s 1
f 55/76/186 56/77/185 68/91/66 67/90/65
s 2
f 56/77/196 57/78/195 69/92/86 68/91/85
s 5
f 57/78/194 58/80/193 70/94/82 69/92/81
s 4
f 71/95/80 70/93/79 58/79/192 59/81/191
s 3
f 72/96/76 71/95/75 59/81/190 60/82/189
s 6
f 67/90/71 72/96/70 60/82/188 55/76/187
s 1
f 50/70/197 49/69/198 74/98/150 73/97/149
s 2
f 49/69/199 54/75/200 75/99/170 74/98/169
s 5
f 54/75/201 53/74/202 76/101/166 75/99/165
s 4
f 77/102/164 76/100/163 53/73/203 52/72/204
s 3
f 78/103/160 77/102/159 52/72/205 51/71/206
s 6
f 73/97/156 78/103/155 51/71/207 50/70/208
s 1
f 80/105/4 79/104/3 49/69/198 50/70/197
s 6
f 50/70/208 51/71/207 81/106/30 80/105/29
s 3
f 51/71/206 52/72/205 82/107/18 81/106/17
s 4
f 52/72/204 53/73/203 83/108/22 82/107/21
s 5
f 84/110/27 83/109/26 53/74/202 54/75/201
s 2
f 79/104/8 84/110/7 54/75/200 49/69/199
s 7
f 43/62/209 44/63/210 86/112/90 85/111/89
s 8
f 44/63/211 45/64/212 87/113/110 86/112/109
s 11
f 45/64/213 46/66/214 88/115/106 87/113/105
s 10
f 89/116/104 88/114/103 46/65/215 47/67/216
s 9
f 90/117/100 89/116/99 47/67/217 48/68/218
s 12
f 85/111/95 90/117/94 48/68/219 43/62/220
s 7
f 92/119/138 91/118/137 44/63/210 43/62/209
s 12
f 43/62/220 48/68/219 93/120/148 92/119/147
s 9
f 48/68/218 47/67/217 94/121/146 93/120/145
s 10
f 47/67/216 46/65/215 95/122/144 94/121/143
s 11
f 96/124/142 95/123/141 46/66/214 45/64/213
s 8
f 91/118/140 96/124/139 45/64/212 44/63/211
s 7
f 38/56/221 37/55/222 98/126/114 97/125/113
s 8
f 37/55/223 42/61/224 99/127/134 98/126/133
s 11
f 42/61/225 41/60/226 100/129/130 99/127/129
s 10
f 101/130/128 100/128/127 41/59/227 40/58/228
s 9
f 102/131/124 101/130/123 40/58/229 39/57/230
s 12
f 97/125/120 102/131/119 39/57/231 38/56/232
s 7
f 104/133/44 103/132/43 37/55/222 38/56/221
s 12
f 38/56/232 39/57/231 105/134/62 104/133/61
s 9
f 39/57/230 40/58/229 106/135/50 105/134/49
s 10
f 40/58/228 41/59/227 107/136/54 106/135/53
s 11
f 108/138/59 107/137/58 41/60/226 42/61/225
s 8
f 103/132/48 108/138/47 42/61/224 37/55/223
