# This file uses centimeters as units for non-parametric coordinates.

mtllib Wall_HP.mtl
g default
v -0.996171 0.014290 -0.028579
v -0.985710 0.003829 -0.028579
v -0.971421 0.000000 -0.028579
v -0.971421 0.003829 -0.014290
v -0.971421 0.014290 -0.003829
v -0.971421 0.028579 0.000000
v -0.985710 0.028579 -0.003829
v -0.996171 0.028579 -0.014290
v -1.000000 0.028579 -0.028579
v -0.500000 0.028579 0.000000
v -0.500000 0.014290 -0.003829
v -0.500000 0.003829 -0.014290
v -0.500000 0.000000 -0.028579
v -0.985710 0.996171 -0.028569
v -0.996171 0.985710 -0.028569
v -1.000000 0.971421 -0.028579
v -0.996171 0.971405 -0.014290
v -0.985710 0.971405 -0.003829
v -0.971421 0.971421 0.000000
v -0.971421 0.985710 -0.003829
v -0.971421 0.996171 -0.014290
v -0.971421 1.000000 -0.028579
v -0.494717 0.993745 -0.029443
v -0.508033 0.998416 -0.029443
v -0.522056 1.000000 -0.029433
v -0.522404 0.994714 -0.014286
v -0.517790 0.984682 -0.003446
v -0.509547 0.972784 0.000000
v -0.495677 0.976942 -0.003451
v -0.485808 0.981893 -0.014291
v -0.482777 0.986222 -0.029433
v -0.014290 0.003829 -0.028572
v -0.003829 0.014290 -0.028572
v 0.000000 0.028579 -0.028579
v -0.003829 0.028579 -0.014290
v -0.014290 0.028579 -0.003829
v -0.028579 0.028579 0.000000
v -0.028590 0.014290 -0.003829
v -0.028590 0.003829 -0.014290
v -0.028579 0.000000 -0.028579
v -0.002119 0.591081 -0.029325
v -0.008288 0.603917 -0.029325
v -0.017962 0.614370 -0.029320
v -0.020990 0.610950 -0.014447
v -0.024458 0.600834 -0.003681
v -0.027407 0.586827 0.000000
v -0.014637 0.580370 -0.003678
v -0.004571 0.576759 -0.014444
v 0.000000 0.576997 -0.029320
v -0.517664 0.984667 -2.996634
v -0.522161 0.994703 -2.985947
v -0.521736 1.000000 -2.970994
v -0.507884 0.998417 -2.970845
v -0.494678 0.993743 -2.970700
v -0.482777 0.986222 -2.970567
v -0.485808 0.981893 -2.985709
v -0.495677 0.976942 -2.996549
v -0.509547 0.972784 -3.000000
v -0.985710 0.971405 -2.996171
v -0.996171 0.971405 -2.985710
v -1.000000 0.971421 -2.971421
v -0.996171 0.985710 -2.971426
v -0.985710 0.996171 -2.971426
v -0.971421 1.000000 -2.971421
v -0.971421 0.996171 -2.985710
v -0.971421 0.985710 -2.996171
v -0.971421 0.971421 -3.000000
v -0.004583 0.576974 -2.985755
v -0.014651 0.580479 -2.996387
v -0.027407 0.586827 -3.000000
v -0.024382 0.600755 -2.996384
v -0.020829 0.610806 -2.985752
v -0.017735 0.614188 -2.971051
v -0.008184 0.603868 -2.971051
v -0.002092 0.591193 -2.971051
v 0.000000 0.577288 -2.971051
v -0.985710 0.003829 -2.971421
v -0.996171 0.014290 -2.971421
v -1.000000 0.028579 -2.971421
v -0.996171 0.028579 -2.985710
v -0.985710 0.028579 -2.996171
v -0.971421 0.028579 -3.000000
v -0.971421 0.014290 -2.996171
v -0.971421 0.003829 -2.985710
v -0.971421 0.000000 -2.971421
v -0.500000 0.028579 -3.000000
v -0.500000 0.014290 -2.996171
v -0.500000 0.003829 -2.985710
v -0.500000 0.000000 -2.971421
v -0.003829 0.014290 -2.971424
v -0.014290 0.003829 -2.971424
v -0.028579 0.000000 -2.971421
v -0.028590 0.003829 -2.985710
v -0.028590 0.014290 -2.996171
v -0.028579 0.028579 -3.000000
v -0.014290 0.028579 -2.996171
v -0.003829 0.028579 -2.985710
v 0.000000 0.028579 -2.971421
v -0.994022 0.016231 -0.016231
v -0.983769 0.005978 -0.016231
v -0.983769 0.016231 -0.005978
v -0.983766 0.994033 -0.016228
v -0.994021 0.983781 -0.016231
v -0.983770 0.983770 -0.005980
v -0.495641 0.989640 -0.016291
v -0.509846 0.994623 -0.016294
v -0.504983 0.985797 -0.005464
v -0.016228 0.005978 -0.016229
v -0.005974 0.016232 -0.016228
v -0.016232 0.016230 -0.005978
v -0.005227 0.589247 -0.016443
v -0.011675 0.602659 -0.016440
v -0.014418 0.593071 -0.005788
v -0.504913 0.985788 -2.994596
v -0.509714 0.994617 -2.983881
v -0.495603 0.989633 -2.983798
v -0.983770 0.983770 -2.994019
v -0.994021 0.983781 -2.983766
v -0.983766 0.994033 -2.983770
v -0.005214 0.589339 -2.983783
v -0.014386 0.593086 -2.994311
v -0.011595 0.602612 -2.983787
v -0.983769 0.005978 -2.983769
v -0.994022 0.016231 -2.983769
v -0.983769 0.016231 -2.994022
v -0.005974 0.016232 -2.983770
v -0.016228 0.005978 -2.983769
v -0.016232 0.016230 -2.994021
vt 0.536436 0.436393
vt 0.830751 0.597559
vt 0.830780 0.731232
vt 0.536487 0.575755
vt 0.964607 0.676675
vt 0.536291 0.031345
vt 0.536430 0.112407
vt 0.971364 0.279977
vt 0.971211 0.207036
vt 0.971251 0.119008
vt 0.971417 0.427788
vt 0.801218 0.734147
vt 0.971249 0.112293
vt 0.971275 0.031189
vt 0.971471 0.575599
vt 0.665981 0.596148
vt 0.897587 0.597545
vt 0.964423 0.597530
vt 0.896264 0.731411
vt 0.536379 0.280133
vt 0.536482 0.213712
vt 0.971277 0.213509
vt 0.536480 0.207192
vt 0.536432 0.119208
vt 0.734290 0.733667
vt 0.664994 0.677036
vt 0.734290 0.596838
vt 0.971421 0.436237
vt 0.971446 0.505917
vt 0.536461 0.506074
vt 0.536433 0.427944
vt 0.536383 0.288582
vt 0.971367 0.288426
vt 0.802599 0.597529
vt 0.536409 0.430761
vt 0.536410 0.433574
vt 0.908098 0.593491
vt 0.532211 0.435054
vt 0.865118 0.593363
vt 0.867631 0.594427
vt 0.532209 0.429048
vt 0.908986 0.593490
vt 0.897603 0.595518
vt 0.532237 0.506075
vt 0.897586 0.593493
vt 0.536354 0.282956
vt 0.536355 0.285758
vt 0.930009 0.593486
vt 0.532158 0.287009
vt 0.878103 0.659673
vt 0.876119 0.656945
vt 0.532156 0.281000
vt 0.930898 0.593485
vt 0.536461 0.209363
vt 0.536462 0.211534
vt 0.940910 0.593483
vt 0.532132 0.213354
vt 0.911421 0.663399
vt 0.914189 0.665073
vt 0.532130 0.207261
vt 0.941812 0.593483
vt 0.535316 0.577868
vt 0.533959 0.027121
vt 0.534158 0.579980
vt 0.968191 0.593477
vt 0.532066 0.029032
vt 0.966238 0.595245
vt 0.964506 0.595475
vt 0.532263 0.575950
vt 0.964607 0.593478
vt 0.536409 0.114661
vt 0.536410 0.116925
vt 0.955072 0.593480
vt 0.532098 0.117669
vt 0.955924 0.632415
vt 0.956674 0.632407
vt 0.532095 0.111617
vt 0.955968 0.593480
vt 0.975564 0.212249
vt 0.732877 0.736639
vt 0.973505 0.213236
vt 0.971253 0.211363
vt 0.971231 0.209206
vt 0.973462 0.207355
vt 0.732112 0.736049
vt 0.975562 0.208346
vt 0.766638 0.716864
vt 0.975591 0.286678
vt 0.733246 0.700158
vt 0.971386 0.285601
vt 0.971378 0.282799
vt 0.973493 0.280339
vt 0.733216 0.703106
vt 0.975588 0.280663
vt 0.694614 0.659117
vt 0.975528 0.111499
vt 0.679516 0.668081
vt 0.975530 0.117490
vt 0.696933 0.663876
vt 0.970187 0.124383
vt 0.970446 0.118229
vt 0.970860 0.115253
vt 0.971444 0.433417
vt 0.971443 0.430604
vt 0.733950 0.630482
vt 0.975642 0.428829
vt 0.769636 0.612807
vt 0.770894 0.610193
vt 0.975644 0.434839
vt 0.733980 0.627536
vt 0.734295 0.594775
vt 0.975670 0.505916
vt 0.734332 0.592697
vt 0.973802 0.579823
vt 0.973604 0.026964
vt 0.972641 0.577709
vt 0.665834 0.592005
vt 0.975695 0.575791
vt 0.665919 0.594056
vt 0.664362 0.594805
vt 0.975499 0.028874
vt 0.662622 0.593483
vt 0.908704 0.593490
vt 0.532210 0.430959
vt 0.908380 0.593491
vt 0.532211 0.433144
vt 0.736019 0.529835
vt 0.930616 0.593486
vt 0.532157 0.282910
vt 0.930292 0.593486
vt 0.532158 0.285095
vt 0.742999 0.507176
vt 0.941530 0.593483
vt 0.532130 0.209170
vt 0.941194 0.593483
vt 0.532131 0.211438
vt 0.760086 0.487845
vt 0.966412 0.593477
vt 0.532263 0.577832
vt 0.968474 0.593477
vt 0.532264 0.579981
vt 0.532065 0.027122
vt 0.966146 0.594693
vt 0.955686 0.593480
vt 0.532096 0.113525
vt 0.955354 0.593480
vt 0.532097 0.115767
vt 0.787256 0.427955
vt 0.975563 0.210295
vt 0.732867 0.737597
vt 0.973235 0.211417
vt 0.973233 0.209175
vt 0.975589 0.282575
vt 0.733225 0.702168
vt 0.975590 0.284761
vt 0.733236 0.701097
vt 0.973883 0.282722
vt 0.975529 0.113388
vt 0.695345 0.660618
vt 0.975529 0.115566
vt 0.696189 0.662348
vt 0.847271 0.343447
vt 0.733970 0.628473
vt 0.975644 0.432927
vt 0.733959 0.629544
vt 0.975643 0.430741
vt 0.849900 0.541240
vt 0.661882 0.591965
vt 0.975498 0.026963
vt 0.975696 0.579822
vt 0.663989 0.591986
vt 0.975695 0.577673
vt 0.664312 0.593530
vn -0.007873 -0.999968 0.001285
vn -0.499986 -0.866033 0.000970
vn -0.499986 -0.866033 -0.000970
vn -0.007873 -0.999968 -0.001285
vn -0.707108 -0.707105 0.000962
vn -0.707108 -0.707105 -0.000962
vn -0.965949 -0.258730 0.000912
vn -0.999991 -0.003996 0.001290
vn -0.999991 -0.003996 -0.001290
vn -0.965949 -0.258730 -0.000912
vn -0.007925 -0.004007 0.999961
vn -0.005933 -0.499905 0.866060
vn -0.000000 -0.499999 0.866026
vn -0.000000 -0.004453 0.999990
vn -0.005933 -0.866060 0.499905
vn 0.000000 -0.866026 0.499999
vn 0.000000 -0.999999 0.001295
vn -0.866047 -0.003003 0.499953
vn -0.866089 0.003001 0.499881
vn -0.999991 0.003997 0.001289
vn -0.707104 -0.002976 0.707103
vn -0.707103 0.002976 0.707104
vn -0.258535 -0.002825 0.965998
vn -0.007925 0.003694 0.999962
vn -0.258538 0.002823 0.965997
vn -0.965950 0.258728 0.000915
vn -0.965950 0.258728 -0.000915
vn -0.999991 0.003996 -0.001289
vn -0.707107 0.707106 0.000959
vn -0.707107 0.707106 0.000960
vn -0.707107 0.707106 -0.000960
vn -0.707107 0.707106 -0.000959
vn -0.258726 0.965950 0.000911
vn -0.008249 0.999965 0.001526
vn -0.008244 0.999965 -0.001527
vn -0.258727 0.965950 -0.000911
vn -0.004270 0.863717 0.503960
vn 0.003537 0.854071 0.520144
vn 0.003413 0.999993 0.001514
vn -0.004480 0.720454 0.693489
vn 0.002494 0.462042 0.886855
vn -0.006747 0.266648 0.963770
vn 0.001341 0.003341 0.999994
vn 0.224095 0.974566 0.001459
vn 0.223417 0.974722 -0.001431
vn 0.003395 0.999993 -0.001514
vn 0.435900 0.899994 0.001450
vn 0.435267 0.900301 -0.001431
vn 0.622679 0.782475 0.001636
vn 0.622667 0.782485 -0.001636
vn 0.533198 0.669584 0.517066
vn 0.537042 0.668920 0.513939
vn 0.627382 0.778710 0.001638
vn 0.297152 0.374475 0.878333
vn 0.308587 0.381920 0.871155
vn 0.004835 0.002379 0.999985
vn 0.999976 -0.006798 0.001411
vn 0.965950 -0.258727 0.000912
vn 0.965950 -0.258727 -0.000912
vn 0.999976 -0.006795 -0.001412
vn 0.707106 -0.707107 0.000961
vn 0.500020 -0.866013 0.000971
vn 0.500003 -0.866023 -0.000970
vn 0.707106 -0.707107 -0.000961
vn 0.007876 -0.999968 0.001285
vn 0.007875 -0.999968 -0.001285
vn 0.005698 -0.004963 0.999972
vn 0.266568 -0.005336 0.963801
vn 0.469597 0.002804 0.882877
vn 0.718643 -0.004364 0.695365
vn 0.867145 -0.004223 0.498038
vn 0.859220 0.003120 0.511596
vn 0.999992 0.003738 0.001400
vn 0.826795 0.562502 0.001253
vn 0.826811 0.562479 -0.001206
vn 0.627384 0.778708 -0.001636
vn 0.955735 0.294226 0.001256
vn 0.955727 0.294252 -0.001208
vn 0.999992 0.003740 -0.001399
vn 0.003364 0.852646 -0.522478
vn -0.004518 0.862176 -0.506589
vn 0.002407 0.459658 -0.888093
vn -0.004726 0.717925 -0.696105
vn 0.001329 0.003316 -0.999994
vn -0.007926 0.003655 -0.999962
vn -0.006832 0.264103 -0.964470
vn 0.295590 0.372508 -0.879695
vn 0.307297 0.380561 -0.872205
vn 0.004813 0.002367 -0.999986
vn 0.532274 0.668513 -0.519398
vn 0.536176 0.668128 -0.515869
vn -0.866090 0.003002 -0.499879
vn -0.866048 -0.003003 -0.499952
vn -0.707104 0.002978 -0.707103
vn -0.707105 -0.002976 -0.707102
vn -0.258531 0.002823 -0.965999
vn -0.007925 -0.004007 -0.999961
vn -0.258528 -0.002825 -0.966000
vn 0.467747 0.002640 -0.883858
vn 0.264591 -0.005392 -0.964346
vn 0.005651 -0.004965 -0.999972
vn 0.858066 0.002916 -0.513531
vn 0.865789 -0.004389 -0.500390
vn 0.716434 -0.004529 -0.697641
vn 0.000000 -0.999999 -0.001295
vn -0.000000 -0.866026 -0.500000
vn 0.005930 -0.866089 -0.499854
vn -0.000000 -0.500000 -0.866026
vn 0.005877 -0.707095 -0.707095
vn -0.000000 -0.004454 -0.999990
vn 0.005579 -0.258261 -0.966059
vn 0.005929 -0.866089 0.499855
vn 0.005578 -0.258261 0.966059
vn 0.005876 -0.707093 0.707096
vn -0.005583 -0.966060 -0.258257
vn -0.005877 -0.707091 -0.707098
vn -0.005933 -0.499905 -0.866060
vn -0.946104 -0.229005 0.229007
vn -0.707840 -0.499483 0.499479
vn -0.499478 -0.707843 0.499479
vn -0.229007 -0.946103 0.229007
vn -0.499478 -0.499483 0.707841
vn -0.229007 -0.229006 0.946104
vn -0.228556 0.946282 0.228718
vn -0.499253 0.707828 0.499726
vn -0.707888 0.499266 0.499627
vn -0.946135 0.228734 0.229150
vn -0.499560 0.498986 0.708134
vn -0.229202 0.228957 0.946068
vn 0.423820 0.793539 0.436660
vn 0.164661 0.884365 0.436790
vn 0.211685 0.604426 0.768023
vn 0.228840 -0.946114 0.229129
vn 0.499280 -0.707866 0.499645
vn 0.707788 -0.499379 0.499657
vn 0.946177 -0.228797 0.228911
vn 0.499178 -0.499545 0.708009
vn 0.228947 -0.229122 0.946090
vn 0.878593 0.230876 0.418057
vn 0.729174 0.541873 0.417947
vn 0.575421 0.276233 0.769796
vn 0.214779 0.599936 -0.770679
vn 0.168413 0.881794 -0.440540
vn 0.427628 0.790479 -0.438496
vn -0.229233 0.228995 -0.946051
vn -0.499608 0.499028 -0.708070
vn -0.707900 0.499336 -0.499542
vn -0.946124 0.228799 -0.229131
vn -0.499322 0.707831 -0.499653
vn -0.228621 0.946273 -0.228692
vn 0.876403 0.229661 -0.423288
vn 0.570331 0.273788 -0.774444
vn 0.726857 0.540923 -0.423180
vn -0.229009 -0.946103 -0.229007
vn -0.499476 -0.707843 -0.499482
vn -0.707843 -0.499479 -0.499478
vn -0.946102 -0.229008 -0.229011
vn -0.499484 -0.499477 -0.707841
vn -0.228999 -0.229009 -0.946105
vn 0.946170 -0.228841 -0.228898
vn 0.707792 -0.499422 -0.499608
vn 0.499329 -0.707872 -0.499587
vn 0.228880 -0.946108 -0.229116
vn 0.499198 -0.499580 -0.707970
vn 0.228985 -0.229142 -0.946076
s 1
g Wall_HP
usemtl Wall_LP:initialShadingGroup
f 3/1/1 2/36/2 77/103/3 85/28/4
f 2/36/2 1/35/5 78/104/6 77/103/3
f 1/35/7 9/31/8 79/11/9 78/104/10
f 6/2/11 5/39/12 11/43/13 10/17/14
f 5/39/12 4/37/15 12/45/16 11/43/13
f 4/38/15 3/1/1 13/30/17 12/44/16
f 9/31/8 8/41/18 17/49/19 16/32/20
f 8/42/18 7/40/21 18/50/22 17/48/19
f 7/40/23 6/2/11 19/3/24 18/50/25
f 16/32/20 15/47/26 62/90/27 61/33/28
f 15/47/29 14/46/30 63/91/31 62/90/32
f 14/46/33 22/20/34 64/8/35 63/91/36
f 22/20/34 21/52/37 26/57/38 25/21/39
f 21/53/37 20/51/40 27/58/41 26/56/38
f 20/51/42 19/3/24 28/19/43 27/58/41
f 25/21/39 24/55/44 53/82/45 52/22/46
f 24/55/44 23/54/47 54/83/48 53/82/45
f 23/54/47 31/23/49 55/9/50 54/83/48
f 31/23/49 30/60/51 44/74/52 43/24/53
f 30/61/51 29/59/54 45/75/55 44/73/52
f 29/59/54 28/19/43 46/5/56 45/75/55
f 34/6/57 33/63/58 90/115/59 98/14/60
f 33/64/61 32/62/62 91/116/63 90/114/64
f 32/62/62 40/4/65 92/15/66 91/116/63
f 37/18/67 36/67/68 47/76/69 46/5/56
f 36/67/70 35/65/71 48/78/72 47/76/69
f 35/66/71 34/6/57 49/7/73 48/77/72
f 43/24/53 42/72/74 74/101/75 73/10/76
f 42/72/74 41/71/77 75/102/78 74/101/75
f 41/71/77 49/7/73 76/13/79 75/102/78
f 52/22/46 51/81/80 65/92/81 64/8/35
f 51/81/80 50/79/82 66/94/83 65/92/81
f 50/80/82 58/25/84 67/12/85 66/93/86
f 58/25/84 57/85/87 71/99/88 70/26/89
f 57/86/87 56/84/90 72/100/91 71/98/88
f 56/84/90 55/9/50 73/10/76 72/100/91
f 61/33/28 60/88/92 80/106/93 79/11/9
f 60/89/92 59/87/94 81/107/95 80/105/93
f 59/87/96 67/12/85 82/34/97 81/107/98
f 70/26/89 69/97/99 96/120/100 95/16/101
f 69/97/99 68/95/102 97/122/103 96/120/104
f 68/96/102 76/13/79 98/14/60 97/121/103
f 89/29/105 88/112/106 93/118/107 92/15/66
f 88/113/106 87/111/108 94/119/109 93/117/107
f 87/111/108 86/27/110 95/16/101 94/119/111
f 6/2/11 10/17/14 28/19/43 19/3/24
f 10/17/14 37/18/67 46/5/56 28/19/43
f 22/20/34 25/21/39 52/22/46 64/8/35
f 31/23/49 43/24/53 73/10/76 55/9/50
f 67/12/85 58/25/84 86/27/110 82/34/97
f 58/25/84 70/26/89 95/16/101 86/27/110
f 85/28/4 89/29/105 13/30/17 3/1/1
f 89/29/105 92/15/66 40/4/65 13/30/17
f 34/6/57 98/14/60 76/13/79 49/7/73
f 79/11/9 9/31/8 16/32/20 61/33/28
f 12/44/16 13/30/17 40/4/65 39/69/112
f 10/17/14 11/43/13 38/68/113 37/18/67
f 11/43/13 12/45/16 39/70/112 38/68/114
f 85/28/4 84/109/115 88/112/106 89/29/105
f 84/110/116 83/108/117 87/111/108 88/113/106
f 83/108/117 82/34/97 86/27/110 87/111/108
f 8/41/18 9/31/8 1/35/7 99/124/118
f 99/124/119 1/35/5 2/36/2 100/126/120
f 2/36/2 3/1/1 4/38/15 100/126/121
f 100/125/120 4/37/15 5/39/12 101/127/122
f 5/39/12 6/2/11 7/40/23 101/127/123
f 101/127/122 7/40/21 8/42/18 99/123/119
f 99/123/119 100/125/120 101/127/122
f 21/52/37 22/20/34 14/46/33 102/129/124
f 102/129/125 14/46/30 15/47/29 103/131/126
f 15/47/26 16/32/20 17/49/19 103/131/127
f 103/130/126 17/48/19 18/50/22 104/132/128
f 18/50/25 19/3/24 20/51/42 104/132/129
f 104/132/128 20/51/40 21/53/37 102/128/125
f 102/128/125 103/130/126 104/132/128
f 30/60/51 31/23/49 23/54/47 105/134/130
f 105/134/130 23/54/47 24/55/44 106/136/131
f 24/55/44 25/21/39 26/57/38 106/136/131
f 106/135/131 26/56/38 27/58/41 107/137/132
f 27/58/41 28/19/43 29/59/54 107/137/132
f 107/137/132 29/59/54 30/61/51 105/133/130
f 105/133/130 106/135/131 107/137/132
f 39/69/112 40/4/65 32/62/62 108/139/133
f 108/139/134 32/62/62 33/64/61 109/141/135
f 33/63/58 34/6/57 35/66/71 109/142/136
f 109/140/135 35/65/71 36/67/70 110/143/137
f 36/67/68 37/18/67 38/68/113 110/143/138
f 110/143/137 38/68/114 39/70/112 108/138/134
f 108/138/134 109/140/135 110/143/137
f 48/77/72 49/7/73 41/71/77 111/145/139
f 111/145/139 41/71/77 42/72/74 112/147/140
f 42/72/74 43/24/53 44/74/52 112/147/140
f 112/146/140 44/73/52 45/75/55 113/148/141
f 45/75/55 46/5/56 47/76/69 113/148/141
f 113/148/141 47/76/69 48/78/72 111/144/139
f 111/144/139 112/146/140 113/148/141
f 57/85/87 58/25/84 50/80/82 114/150/142
f 114/149/142 50/79/82 51/81/80 115/151/143
f 51/81/80 52/22/46 53/82/45 115/151/143
f 115/151/143 53/82/45 54/83/48 116/152/144
f 54/83/48 55/9/50 56/84/90 116/152/144
f 116/152/144 56/84/90 57/86/87 114/149/142
f 114/149/142 115/151/143 116/152/144
f 66/93/86 67/12/85 59/87/96 117/154/145
f 117/154/146 59/87/94 60/89/92 118/156/147
f 60/88/92 61/33/28 62/90/27 118/155/148
f 118/155/147 62/90/32 63/91/31 119/157/149
f 63/91/36 64/8/35 65/92/81 119/157/150
f 119/157/149 65/92/81 66/94/83 117/153/146
f 117/153/146 118/155/147 119/157/149
f 75/102/78 76/13/79 68/96/102 120/158/151
f 120/159/151 68/95/102 69/97/99 121/161/152
f 69/97/99 70/26/89 71/99/88 121/161/152
f 121/160/152 71/98/88 72/100/91 122/162/153
f 72/100/91 73/10/76 74/101/75 122/162/153
f 122/162/153 74/101/75 75/102/78 120/158/151
f 120/158/151 121/160/152 122/162/153
f 84/109/115 85/28/4 77/103/3 123/164/154
f 123/164/155 77/103/3 78/104/6 124/166/156
f 78/104/10 79/11/9 80/106/93 124/166/157
f 124/165/156 80/105/93 81/107/95 125/167/158
f 81/107/98 82/34/97 83/108/117 125/167/159
f 125/167/158 83/108/117 84/110/116 123/163/155
f 123/163/155 124/165/156 125/167/158
f 97/121/103 98/14/60 90/115/59 126/169/160
f 126/170/161 90/114/64 91/116/63 127/172/162
f 91/116/63 92/15/66 93/118/107 127/172/163
f 127/171/162 93/117/107 94/119/109 128/173/164
f 94/119/111 95/16/101 96/120/100 128/173/165
f 128/173/164 96/120/104 97/122/103 126/168/161
f 126/168/161 127/171/162 128/173/164
